<?xml version="1.0" encoding="UTF-8"?>
<svg id="Capa_1" xmlns="http://www.w3.org/2000/svg" viewBox="0 0 300 300">
  <defs>
    <style>
      .cls-1 {
        fill: #5e0047;
      }

      .cls-2 {
        fill: #fff;
      }
    </style>
  </defs>
  <rect class="cls-1" x="-44.28" y="-3.48" width="403.66" height="308.45"/>
  <g>
    <circle class="cls-2" cx="32.2" cy="153.31" r="6.94"/>
    <circle class="cls-2" cx="48.94" cy="153.31" r="6.94" transform="translate(-54.95 30.4) rotate(-22.5)"/>
    <path class="cls-2" d="M134.01,157.47c18.27,0,26.15-7.88,26.15-16.48,0-20.06-34.75-13.25-34.75-20.42,0-2.15,2.15-4.3,8.6-4.3,5.37,0,7.59,2.15,8.24,3.22,1,1.79,2.15,2.87,4.3,2.87h8.96c1.79,0,2.87-1.07,2.87-2.87,0-7.16-7.88-15.05-24.36-15.05-17.55,0-25.08,7.52-25.08,16.12,0,20.06,34.75,13.25,34.75,20.42,0,2.15-2.51,4.66-9.67,4.66s-9.31-2.15-10.39-3.94c-1-1.72-2.15-2.87-4.3-2.87h-8.96c-1.79,0-2.87,1.07-2.87,2.87,0,7.88,7.88,15.76,26.51,15.76Z"/>
    <path class="cls-2" d="M219.29,105.88h-12.18c-1.43,0-2.65,1.07-3.22,2.51l-12.54,32.6h-.72l-12.9-32.6c-.57-1.43-1.79-2.51-3.22-2.51h-11.46c-1.43,0-2.44,1.07-1.79,2.51l19.35,45.14c.64,1.43,1.79,2.51,3.22,2.51h14.69c1.43,0,2.58-1.07,3.22-2.51l19.35-45.14c.64-1.43-.36-2.51-1.79-2.51Z"/>
    <path class="cls-2" d="M228.62,156.03h43.71c1.43,0,2.51-1.07,2.51-2.51v-7.17c0-1.43-1.07-2.51-2.51-2.51h-30.45v-7.17h22.57c1.43,0,2.51-1.07,2.51-2.51v-7.17c0-1.43-1.07-2.51-2.51-2.51h-22.57v-6.45h30.45c1.43,0,2.51-1.07,2.51-2.51v-7.16c0-1.43-1.07-2.51-2.51-2.51h-43.71c-1.43,0-2.51,1.07-2.51,2.51v45.14c0,1.43,1.07,2.51,2.51,2.51Z"/>
    <circle class="cls-2" cx="23.84" cy="139.37" r="6.94"/>
    <circle class="cls-2" cx="40.57" cy="139.37" r="6.94"/>
    <circle class="cls-2" cx="40.57" cy="167.26" r="6.94"/>
    <circle class="cls-2" cx="57.31" cy="139.37" r="6.94"/>
    <circle class="cls-2" cx="32.2" cy="125.43" r="6.94"/>
    <circle class="cls-2" cx="48.94" cy="125.43" r="6.94" transform="translate(-44.27 28.28) rotate(-22.5)"/>
    <path class="cls-2" d="M39.11,118.41c.57.59,1.06,1.26,1.46,1.98.4-.71.88-1.37,1.43-1.96v-23.47c.42-.39.68-.93.68-1.55,0-1.17-.95-2.11-2.11-2.11s-2.11.95-2.11,2.11c0,.6.25,1.14.65,1.52v23.47Z"/>
    <path class="cls-2" d="M111.68,172.15s.08-.1.11-.16c.02-.06.04-.11.04-.17,0-.13-.04-.23-.11-.31-.07-.07-.16-.12-.26-.12-.1,0-.21.03-.32.1-.25.18-.51.33-.78.43-.27.1-.56.16-.86.16-.35,0-.68-.07-.99-.21s-.58-.33-.81-.58c-.23-.25-.42-.54-.55-.87-.13-.33-.2-.68-.2-1.06s.07-.72.2-1.05c.13-.33.31-.62.55-.87.23-.25.5-.44.81-.59.31-.14.64-.21.99-.21.38,0,.69.05.93.15s.46.25.68.44c.11.08.22.12.33.11.11,0,.21-.05.29-.12.08-.07.12-.17.12-.28,0-.05,0-.1-.01-.14,0-.04-.03-.08-.05-.12-.03-.04-.06-.08-.11-.11-.33-.27-.66-.47-.99-.59-.33-.12-.72-.18-1.18-.18-.49,0-.94.09-1.35.28-.41.18-.78.44-1.09.76-.31.32-.55.7-.73,1.13s-.26.89-.26,1.39.09.97.26,1.4c.17.43.42.81.73,1.13.31.32.68.57,1.09.76.42.18.87.27,1.35.27.4,0,.79-.07,1.15-.2.36-.13.71-.32,1.03-.58Z"/>
    <path class="cls-2" d="M119.7,166.81c-.31-.32-.69-.56-1.11-.74-.43-.17-.9-.26-1.43-.26s-1,.09-1.43.26c-.43.17-.8.42-1.11.74-.31.32-.55.69-.72,1.12-.17.43-.26.91-.26,1.43s.09,1,.26,1.43c.17.44.41.81.72,1.13.31.32.68.56,1.11.74.43.17.91.26,1.43.26s1-.09,1.43-.26c.43-.17.8-.42,1.11-.74.31-.32.56-.69.73-1.13s.26-.91.26-1.43-.09-1-.26-1.43c-.17-.43-.41-.81-.73-1.12ZM119.61,170.44c-.13.33-.31.62-.55.87-.24.25-.52.44-.84.58-.32.14-.68.21-1.06.21s-.74-.07-1.06-.21c-.32-.14-.6-.33-.84-.58-.23-.25-.42-.53-.55-.87-.13-.33-.2-.69-.2-1.07s.07-.74.2-1.07c.13-.33.31-.62.55-.87.23-.25.51-.44.84-.57.32-.14.68-.2,1.06-.2s.74.07,1.06.2c.32.14.6.33.84.57.24.25.42.53.55.87.13.33.19.69.19,1.07s-.06.74-.19,1.07Z"/>
    <path class="cls-2" d="M129.36,169.36c0-.52-.09-1-.26-1.43-.17-.43-.41-.81-.73-1.12s-.69-.56-1.11-.74c-.43-.17-.9-.26-1.43-.26s-1,.09-1.43.26c-.43.17-.8.42-1.11.74-.31.32-.55.69-.72,1.12-.17.43-.26.91-.26,1.43s.09,1,.26,1.43c.17.44.41.81.72,1.13.31.32.68.56,1.11.74.43.17.91.26,1.43.26s1-.09,1.43-.26c.43-.17.8-.42,1.11-.74.31-.32.56-.69.73-1.13s.26-.91.26-1.43ZM128.28,170.44c-.13.33-.31.62-.55.87-.24.25-.52.44-.84.58-.32.14-.68.21-1.06.21s-.74-.07-1.06-.21c-.32-.14-.6-.33-.84-.58-.23-.25-.42-.53-.55-.87-.13-.33-.2-.69-.2-1.07s.07-.74.2-1.07c.13-.33.31-.62.55-.87.23-.25.51-.44.84-.57.32-.14.68-.2,1.06-.2s.74.07,1.06.2c.32.14.6.33.84.57.24.25.42.53.55.87.13.33.19.69.19,1.07s-.06.74-.19,1.07Z"/>
    <path class="cls-2" d="M132.4,172.37v-1.95h1.31c.44,0,.84-.09,1.18-.28.34-.19.61-.45.8-.79.19-.34.29-.72.29-1.15s-.1-.85-.29-1.19c-.19-.35-.46-.62-.8-.81-.34-.2-.74-.29-1.18-.29h-1.78c-.13,0-.24.04-.33.13-.09.09-.13.2-.13.33v6.01c0,.13.04.24.13.33.09.09.2.13.33.13s.25-.04.33-.13c.09-.09.13-.2.13-.33ZM132.4,166.75h1.31c.27,0,.51.06.72.19.21.12.37.29.49.51s.18.47.18.75c0,.27-.06.5-.18.71-.12.21-.28.37-.49.49-.21.12-.45.18-.72.18h-1.31v-2.82Z"/>
    <path class="cls-2" d="M142.15,166.75c.14,0,.25-.04.33-.12.08-.08.12-.18.12-.3,0-.13-.04-.24-.12-.32-.08-.08-.19-.12-.33-.12h-4.01c-.13,0-.24.04-.33.13-.09.09-.13.2-.13.33v6.01c0,.13.04.24.13.33.09.09.2.13.33.13h4.01c.14,0,.25-.04.33-.12.08-.08.12-.19.12-.32s-.04-.22-.12-.3c-.08-.08-.19-.12-.33-.12h-3.55v-2.22h2.55c.14,0,.25-.04.33-.12.08-.08.12-.18.12-.31s-.04-.23-.12-.31c-.08-.08-.19-.12-.33-.12h-2.55v-2.16h3.55Z"/>
    <path class="cls-2" d="M147.7,169.94s.07-.03.1-.04c.34-.18.61-.42.8-.74.19-.31.29-.67.29-1.07,0-.43-.1-.81-.29-1.14-.19-.33-.46-.58-.8-.77-.34-.19-.74-.28-1.18-.28h-1.6c-.13,0-.24.04-.33.13-.09.09-.13.2-.13.33v6.01c0,.13.04.24.13.33.09.09.2.13.33.13s.25-.04.33-.13c.09-.09.13-.2.13-.33v-2.21h1.14c.06,0,.11,0,.16,0l1.53,2.46c.05.08.11.13.17.17s.14.05.23.05c.19,0,.32-.08.4-.23.08-.15.06-.31-.04-.48l-1.36-2.19ZM145.48,169.31v-2.56h1.14c.27,0,.51.06.72.17.21.11.37.27.49.47.12.2.18.43.18.69,0,.24-.06.45-.18.64s-.28.33-.49.44c-.21.1-.45.16-.72.16h-1.14Z"/>
    <path class="cls-2" d="M150.8,172.76c.08-.05.14-.12.18-.21l.51-1.24h3.18l.5,1.24c.04.09.09.16.17.21.08.05.16.08.25.08.17,0,.3-.07.39-.2s.1-.28.03-.45l-2.5-5.98c-.08-.21-.22-.31-.44-.31-.2,0-.35.1-.44.31l-2.5,5.96c-.07.16-.06.31.03.45.09.14.22.21.38.21.08,0,.16-.02.24-.07ZM153.1,167.39l1.27,3.16h-2.56l1.29-3.16Z"/>
    <path class="cls-2" d="M161.46,166.75c.12,0,.23-.04.31-.12s.12-.18.12-.31-.04-.23-.12-.31-.18-.12-.31-.12h-4.75c-.12,0-.23.04-.31.12s-.12.18-.12.31.04.23.12.31.18.12.31.12h1.92v5.62c0,.13.04.24.13.33s.2.13.33.13.24-.04.33-.13c.09-.09.13-.2.13-.33v-5.62h1.91Z"/>
    <path class="cls-2" d="M164.37,172.7c.09-.09.13-.2.13-.33v-6.01c0-.14-.04-.25-.13-.33-.09-.09-.2-.13-.33-.13s-.24.04-.33.13c-.09.09-.13.2-.13.33v6.01c0,.13.04.24.13.33.09.09.2.13.33.13s.25-.04.33-.13Z"/>
    <path class="cls-2" d="M169.32,172.84c.1,0,.19-.03.25-.08.07-.05.12-.12.16-.22l2.63-6.03c.07-.15.07-.29,0-.42-.07-.13-.19-.19-.37-.19-.11,0-.19.02-.25.06-.06.04-.12.11-.16.22l-2.28,5.36-2.23-5.36c-.08-.18-.22-.28-.43-.28-.18,0-.31.07-.37.2-.07.13-.06.3.03.5l2.6,5.95c.09.2.23.29.42.29Z"/>
    <path class="cls-2" d="M176.21,166.21c-.08-.21-.22-.31-.44-.31-.2,0-.35.1-.44.31l-2.5,5.96c-.07.16-.06.31.03.45.09.14.22.21.38.21.08,0,.16-.02.24-.07s.14-.12.18-.21l.51-1.24h3.18l.5,1.24c.04.09.09.16.17.21.08.05.16.08.25.08.17,0,.3-.07.39-.2s.1-.28.03-.45l-2.5-5.98ZM174.5,170.54l1.29-3.16,1.27,3.16h-2.56Z"/>
    <path class="cls-2" d="M188.96,170.76c.17-.42.25-.89.25-1.4s-.08-.97-.25-1.39c-.17-.42-.4-.79-.71-1.1-.31-.31-.67-.55-1.09-.72s-.88-.25-1.39-.25h-1.61c-.13,0-.24.04-.33.13-.09.09-.13.2-.13.33v6.01c0,.13.04.24.13.33.09.09.2.13.33.13h1.61c.51,0,.97-.08,1.39-.25s.78-.41,1.09-.72c.31-.31.54-.68.71-1.1ZM187.09,171.68c-.38.23-.82.34-1.32.34h-1.15v-5.3h1.15c.5,0,.94.11,1.32.34.38.23.68.54.9.93.22.4.33.86.33,1.38s-.11.97-.33,1.37c-.22.4-.52.71-.9.94Z"/>
    <path class="cls-2" d="M195.8,166.75c.14,0,.25-.04.33-.12.08-.08.12-.18.12-.3,0-.13-.04-.24-.12-.32-.08-.08-.19-.12-.33-.12h-4.01c-.13,0-.24.04-.33.13-.09.09-.13.2-.13.33v6.01c0,.13.04.24.13.33.09.09.2.13.33.13h4.01c.14,0,.25-.04.33-.12.08-.08.12-.19.12-.32s-.04-.22-.12-.3c-.08-.08-.19-.12-.33-.12h-3.55v-2.22h2.55c.14,0,.25-.04.33-.12.08-.08.12-.18.12-.31s-.04-.23-.12-.31c-.08-.08-.19-.12-.33-.12h-2.55v-2.16h3.55Z"/>
    <path class="cls-2" d="M201.94,172.84c.14,0,.25-.04.33-.13.09-.09.13-.2.13-.33v-1.95h1.31c.44,0,.84-.09,1.18-.28.34-.19.61-.45.8-.79.19-.34.29-.72.29-1.15s-.1-.85-.29-1.19c-.19-.35-.46-.62-.8-.81-.34-.2-.74-.29-1.18-.29h-1.78c-.13,0-.24.04-.33.13-.09.09-.13.2-.13.33v6.01c0,.13.04.24.13.33.09.09.2.13.33.13ZM202.4,166.75h1.31c.27,0,.51.06.72.19.21.12.37.29.49.51.12.22.18.47.18.75,0,.27-.06.5-.18.71-.12.21-.28.37-.49.49-.21.12-.45.18-.72.18h-1.31v-2.82Z"/>
    <path class="cls-2" d="M211.42,172.61c.05.08.11.13.17.17.07.04.14.05.23.05.19,0,.32-.08.4-.23s.06-.31-.04-.48l-1.36-2.19s.07-.03.1-.04c.34-.18.61-.42.8-.74.19-.31.29-.67.29-1.07,0-.43-.1-.81-.29-1.14s-.46-.58-.8-.77-.74-.28-1.18-.28h-1.6c-.13,0-.24.04-.33.13-.09.09-.13.2-.13.33v6.01c0,.13.04.24.13.33.09.09.2.13.33.13s.25-.04.33-.13c.09-.09.13-.2.13-.33v-2.21h1.14c.06,0,.11,0,.16,0l1.53,2.46ZM208.6,169.31v-2.56h1.14c.27,0,.51.06.72.17.21.11.37.27.49.47.12.2.18.43.18.69,0,.24-.06.45-.18.64-.12.19-.28.33-.49.44-.21.1-.45.16-.72.16h-1.14Z"/>
    <path class="cls-2" d="M219.7,166.81c-.31-.32-.69-.56-1.11-.74-.43-.17-.9-.26-1.43-.26s-1,.09-1.43.26c-.43.17-.8.42-1.11.74s-.55.69-.72,1.12c-.17.43-.26.91-.26,1.43s.09,1,.26,1.43.41.81.72,1.13c.31.32.68.56,1.11.74s.91.26,1.43.26,1-.09,1.43-.26c.43-.17.8-.42,1.11-.74.31-.32.56-.69.73-1.13s.26-.91.26-1.43-.09-1-.26-1.43c-.17-.43-.41-.81-.73-1.12ZM219.61,170.44c-.13.33-.31.62-.55.87-.24.25-.52.44-.84.58-.32.14-.68.21-1.06.21s-.74-.07-1.06-.21c-.32-.14-.6-.33-.84-.58-.23-.25-.42-.53-.55-.87s-.2-.69-.2-1.07.07-.74.2-1.07c.13-.33.31-.62.55-.87.23-.25.51-.44.84-.57.32-.14.68-.2,1.06-.2s.74.07,1.06.2c.32.14.6.33.84.57.24.25.42.53.55.87.13.33.19.69.19,1.07s-.06.74-.19,1.07Z"/>
    <path class="cls-2" d="M228.14,166.09c-.07-.13-.19-.19-.37-.19-.11,0-.19.02-.25.06-.06.04-.12.11-.16.22l-2.28,5.36-2.23-5.36c-.08-.18-.22-.28-.43-.28-.18,0-.31.07-.37.2-.07.13-.06.3.03.5l2.6,5.95c.09.2.23.29.42.29.1,0,.18-.03.25-.08s.12-.12.16-.22l2.63-6.03c.07-.15.07-.29,0-.42Z"/>
    <path class="cls-2" d="M230.06,166.03c-.09.09-.13.2-.13.33v6.01c0,.13.04.24.13.33.09.09.2.13.33.13s.25-.04.33-.13c.09-.09.13-.2.13-.33v-6.01c0-.14-.04-.25-.13-.33-.09-.09-.2-.13-.33-.13s-.24.04-.33.13Z"/>
    <path class="cls-2" d="M237.22,172.42c.23-.17.42-.38.56-.63.14-.25.21-.54.21-.88,0-.59-.2-1.06-.59-1.42-.39-.36-.94-.57-1.65-.64-.46-.05-.82-.13-1.06-.25-.25-.12-.41-.26-.51-.42-.09-.16-.14-.33-.14-.51,0-.35.15-.61.44-.78s.66-.25,1.1-.24c.25,0,.46.03.65.1.18.07.34.16.48.28.14.12.25.26.35.44.07.11.16.19.29.23s.25.03.36-.04c.1-.07.16-.16.17-.27.01-.12-.02-.24-.1-.37-.15-.24-.32-.45-.52-.63-.2-.18-.44-.32-.71-.42s-.58-.15-.95-.15c-.46,0-.88.07-1.26.21-.38.14-.67.35-.89.62-.22.27-.33.6-.33.99,0,.53.21.98.63,1.34.42.36,1,.58,1.73.65.56.06.97.21,1.21.46.25.25.37.53.37.84,0,.25-.07.46-.22.63s-.34.3-.58.39-.5.13-.79.13c-.25,0-.5-.04-.73-.12-.23-.08-.43-.18-.59-.3-.16-.12-.28-.26-.35-.41-.05-.11-.13-.2-.24-.25-.1-.06-.21-.07-.32-.05-.15.03-.25.1-.32.2-.06.11-.06.22,0,.35.12.28.3.52.56.74.25.21.55.38.9.5s.7.18,1.08.18c.32,0,.63-.04.93-.12s.57-.21.8-.38Z"/>
    <path class="cls-2" d="M240.2,166.03c-.09.09-.13.2-.13.33v6.01c0,.13.04.24.13.33.09.09.2.13.33.13s.25-.04.33-.13c.09-.09.13-.2.13-.33v-6.01c0-.14-.04-.25-.13-.33-.09-.09-.2-.13-.33-.13s-.24.04-.33.13Z"/>
    <path class="cls-2" d="M247.2,163.51l-.87.87c-.07.08-.11.18-.11.3s.04.24.13.32c.09.09.19.13.32.13s.23-.04.31-.12l.86-.86s.08-.09.1-.14c.02-.05.03-.11.03-.17,0-.13-.04-.24-.12-.33-.08-.09-.19-.13-.33-.13-.12,0-.23.04-.32.13Z"/>
    <path class="cls-2" d="M249.18,166.81c-.31-.32-.69-.56-1.11-.74-.43-.17-.9-.26-1.43-.26s-1,.09-1.43.26c-.43.17-.8.42-1.11.74s-.55.69-.72,1.12c-.17.43-.26.91-.26,1.43s.09,1,.26,1.43.41.81.72,1.13c.31.32.68.56,1.11.74s.91.26,1.43.26,1-.09,1.43-.26c.43-.17.8-.42,1.11-.74.31-.32.56-.69.73-1.13s.26-.91.26-1.43-.09-1-.26-1.43c-.17-.43-.41-.81-.73-1.12ZM249.09,170.44c-.13.33-.31.62-.55.87-.24.25-.52.44-.84.58-.32.14-.68.21-1.06.21s-.74-.07-1.06-.21c-.32-.14-.6-.33-.84-.58-.23-.25-.42-.53-.55-.87s-.2-.69-.2-1.07.07-.74.2-1.07c.13-.33.31-.62.55-.87.23-.25.51-.44.84-.57.32-.14.68-.2,1.06-.2s.74.07,1.06.2c.32.14.6.33.84.57.24.25.42.53.55.87.13.33.19.69.19,1.07s-.06.74-.19,1.07Z"/>
    <path class="cls-2" d="M257.42,165.9c-.13,0-.24.04-.33.13-.09.09-.13.2-.13.33v4.86l-3.87-5.15c-.09-.11-.21-.17-.36-.17-.13,0-.24.04-.32.13-.09.09-.13.2-.13.33v6.01c0,.13.04.24.13.33s.19.13.32.13.25-.04.33-.13c.09-.09.13-.2.13-.33v-4.85l3.87,5.15c.04.05.1.09.16.12.07.03.13.04.19.04.14,0,.25-.04.33-.13.08-.09.12-.2.12-.33v-6.01c0-.14-.04-.25-.12-.33-.08-.09-.19-.13-.33-.13Z"/>
    <path class="cls-2" d="M268.13,166.87c-.31-.31-.67-.55-1.09-.72-.42-.17-.88-.25-1.39-.25h-1.61c-.13,0-.24.04-.33.13-.09.09-.13.2-.13.33v6.01c0,.13.04.24.13.33.09.09.2.13.33.13h1.61c.51,0,.97-.08,1.39-.25.42-.17.78-.41,1.09-.72.31-.31.54-.68.71-1.1s.25-.89.25-1.4-.08-.97-.25-1.39c-.17-.42-.4-.79-.71-1.1ZM267.88,170.74c-.22.4-.52.71-.9.94-.38.23-.82.34-1.32.34h-1.15v-5.3h1.15c.5,0,.94.11,1.32.34.38.23.68.54.9.93.22.4.33.86.33,1.38s-.11.97-.33,1.37Z"/>
    <path class="cls-2" d="M275.68,166.75c.14,0,.25-.04.33-.12.08-.08.12-.18.12-.3,0-.13-.04-.24-.12-.32-.08-.08-.19-.12-.33-.12h-4.01c-.13,0-.24.04-.33.13-.09.09-.13.2-.13.33v6.01c0,.13.04.24.13.33.09.09.2.13.33.13h4.01c.14,0,.25-.04.33-.12.08-.08.12-.19.12-.32s-.04-.22-.12-.3c-.08-.08-.19-.12-.33-.12h-3.55v-2.22h2.55c.14,0,.25-.04.33-.12.08-.08.12-.18.12-.31s-.04-.23-.12-.31c-.08-.08-.19-.12-.33-.12h-2.55v-2.16h3.55Z"/>
    <path class="cls-2" d="M93.33,179.51c-.46-.05-.82-.13-1.06-.25-.25-.12-.41-.26-.51-.42-.09-.16-.14-.33-.14-.51,0-.35.15-.61.44-.78.3-.17.66-.25,1.1-.24.25,0,.46.03.65.1s.34.16.48.28c.14.12.25.26.35.44.07.11.16.19.29.23.13.04.25.03.36-.04.1-.07.16-.16.17-.27.01-.12-.02-.24-.1-.37-.15-.24-.32-.45-.52-.63-.2-.18-.44-.32-.71-.42-.27-.1-.58-.15-.95-.15-.46,0-.88.07-1.26.21-.38.14-.67.35-.89.62s-.33.6-.33.99c0,.53.21.98.63,1.34.42.36,1,.58,1.73.65.56.06.97.21,1.21.46.25.25.37.53.37.84,0,.25-.07.46-.22.63s-.34.3-.58.39-.5.13-.79.13c-.25,0-.5-.04-.73-.12-.23-.08-.43-.18-.59-.3s-.28-.26-.35-.41c-.05-.11-.13-.2-.24-.25-.1-.06-.21-.07-.32-.05-.15.03-.25.1-.32.2s-.06.22,0,.35c.12.28.3.52.56.74.25.21.55.38.9.5.34.12.7.18,1.08.18.32,0,.63-.04.93-.12s.57-.21.8-.38c.23-.17.42-.38.56-.63.14-.25.21-.54.21-.88,0-.59-.2-1.06-.59-1.42-.39-.36-.94-.57-1.65-.64Z"/>
    <path class="cls-2" d="M102.12,177.41c.14,0,.25-.04.33-.12.08-.08.12-.18.12-.3,0-.13-.04-.24-.12-.32-.08-.08-.19-.12-.33-.12h-4.01c-.13,0-.24.04-.33.13-.09.09-.13.2-.13.33v6.01c0,.13.04.24.13.33.09.09.2.13.33.13h4.01c.14,0,.25-.04.33-.12.08-.08.12-.19.12-.32s-.04-.22-.12-.3c-.08-.08-.19-.12-.33-.12h-3.55v-2.22h2.55c.14,0,.25-.04.33-.12.08-.08.12-.18.12-.31s-.04-.23-.12-.31c-.08-.08-.19-.12-.33-.12h-2.55v-2.16h3.55Z"/>
    <path class="cls-2" d="M107.67,180.6s.07-.03.1-.04c.34-.18.61-.42.8-.74.19-.31.29-.67.29-1.07,0-.43-.1-.81-.29-1.14-.19-.33-.46-.58-.8-.77-.34-.19-.74-.28-1.18-.28h-1.6c-.13,0-.24.04-.33.13-.09.09-.13.2-.13.33v6.01c0,.13.04.24.13.33.09.09.2.13.33.13s.25-.04.33-.13c.09-.09.13-.2.13-.33v-2.21h1.14c.06,0,.11,0,.16,0l1.53,2.46c.05.08.11.13.17.17s.14.05.23.05c.19,0,.32-.08.4-.23.08-.15.06-.31-.04-.48l-1.36-2.19ZM105.45,179.97v-2.56h1.14c.27,0,.51.06.72.17.21.11.37.27.49.47.12.2.18.43.18.69,0,.24-.06.45-.18.64s-.28.33-.49.44c-.21.1-.45.16-.72.16h-1.14Z"/>
    <path class="cls-2" d="M115.87,176.56c-.11,0-.19.02-.25.06-.06.04-.12.11-.16.22l-2.28,5.36-2.23-5.36c-.08-.18-.22-.28-.43-.28-.18,0-.31.07-.37.2-.07.13-.06.3.03.5l2.6,5.95c.09.2.23.29.42.29.1,0,.19-.03.25-.08.07-.05.12-.12.16-.22l2.63-6.03c.07-.15.07-.29,0-.42-.07-.13-.19-.19-.37-.19Z"/>
    <path class="cls-2" d="M118.48,176.56c-.13,0-.24.04-.33.13-.09.09-.13.2-.13.33v6.01c0,.13.04.24.13.33.09.09.2.13.33.13s.25-.04.33-.13c.09-.09.13-.2.13-.33v-6.01c0-.14-.04-.25-.13-.33-.09-.09-.2-.13-.33-.13Z"/>
    <path class="cls-2" d="M122.69,178.1c.23-.25.5-.44.81-.59.31-.14.64-.21.99-.21.38,0,.69.05.93.15s.46.25.68.44c.11.08.22.12.33.11.11,0,.21-.05.29-.12.08-.07.12-.17.12-.28,0-.05,0-.1-.01-.14,0-.04-.03-.08-.05-.12-.03-.04-.06-.08-.11-.11-.33-.27-.66-.47-.99-.59-.33-.12-.72-.18-1.18-.18-.49,0-.94.09-1.35.28-.41.18-.78.44-1.09.76-.31.32-.55.7-.73,1.13s-.26.89-.26,1.39.09.97.26,1.4c.17.43.42.81.73,1.13.31.32.68.57,1.09.76.42.18.87.27,1.35.27.4,0,.79-.07,1.15-.2.36-.13.71-.32,1.03-.58.05-.05.08-.1.11-.16.02-.06.04-.11.04-.17,0-.13-.04-.23-.11-.31-.07-.07-.16-.12-.26-.12-.1,0-.21.03-.32.1-.25.18-.51.33-.78.43-.27.1-.56.16-.86.16-.35,0-.68-.07-.99-.21s-.58-.33-.81-.58c-.23-.25-.42-.54-.55-.87-.13-.33-.2-.68-.2-1.06s.07-.72.2-1.05c.13-.33.31-.62.55-.87Z"/>
    <path class="cls-2" d="M129.41,176.56c-.13,0-.24.04-.33.13-.09.09-.13.2-.13.33v6.01c0,.13.04.24.13.33.09.09.2.13.33.13s.25-.04.33-.13c.09-.09.13-.2.13-.33v-6.01c0-.14-.04-.25-.13-.33-.09-.09-.2-.13-.33-.13Z"/>
    <path class="cls-2" d="M138.06,177.47c-.31-.32-.69-.56-1.11-.74-.43-.17-.9-.26-1.43-.26s-1,.09-1.43.26c-.43.17-.8.42-1.11.74-.31.32-.55.69-.72,1.12-.17.43-.26.91-.26,1.43s.09,1,.26,1.43c.17.44.41.81.72,1.13.31.32.68.56,1.11.74.43.17.91.26,1.43.26s1-.09,1.43-.26c.43-.17.8-.42,1.11-.74.31-.32.56-.69.73-1.13s.26-.91.26-1.43-.09-1-.26-1.43c-.17-.43-.41-.81-.73-1.12ZM137.97,181.1c-.13.33-.31.62-.55.87-.24.25-.52.44-.84.58-.32.14-.68.21-1.06.21s-.74-.07-1.06-.21c-.32-.14-.6-.33-.84-.58-.23-.25-.42-.53-.55-.87-.13-.33-.2-.69-.2-1.07s.07-.74.2-1.07c.13-.33.31-.62.55-.87.23-.25.51-.44.84-.57.32-.14.68-.2,1.06-.2s.74.07,1.06.2c.32.14.6.33.84.57.24.25.42.53.55.87.13.33.19.69.19,1.07s-.06.74-.19,1.07Z"/>
    <path class="cls-2" d="M143.62,179.51c-.46-.05-.82-.13-1.06-.25-.25-.12-.41-.26-.51-.42-.09-.16-.14-.33-.14-.51,0-.35.15-.61.44-.78.3-.17.66-.25,1.1-.24.25,0,.46.03.65.1s.34.16.48.28c.14.12.25.26.35.44.07.11.16.19.29.23.13.04.25.03.36-.04.1-.07.16-.16.17-.27.01-.12-.02-.24-.1-.37-.15-.24-.32-.45-.52-.63-.2-.18-.44-.32-.71-.42-.27-.1-.58-.15-.95-.15-.46,0-.88.07-1.26.21-.38.14-.67.35-.89.62s-.33.6-.33.99c0,.53.21.98.63,1.34.42.36,1,.58,1.73.65.56.06.97.21,1.21.46.25.25.37.53.37.84,0,.25-.07.46-.22.63s-.34.3-.58.39-.5.13-.79.13c-.25,0-.5-.04-.73-.12-.23-.08-.43-.18-.59-.3s-.28-.26-.35-.41c-.05-.11-.13-.2-.24-.25-.1-.06-.21-.07-.32-.05-.15.03-.25.1-.32.2s-.06.22,0,.35c.12.28.3.52.56.74.25.21.55.38.9.5.34.12.7.18,1.08.18.32,0,.63-.04.93-.12s.57-.21.8-.38c.23-.17.42-.38.56-.63.14-.25.21-.54.21-.88,0-.59-.2-1.06-.59-1.42-.39-.36-.94-.57-1.65-.64Z"/>
    <path class="cls-2" d="M156.27,176.56c-.11,0-.19.02-.25.06-.06.04-.12.11-.16.22l-2.28,5.36-2.23-5.36c-.08-.18-.22-.28-.43-.28-.18,0-.31.07-.37.2-.07.13-.06.3.03.5l2.6,5.95c.09.2.23.29.42.29.1,0,.19-.03.25-.08.07-.05.12-.12.16-.22l2.63-6.03c.07-.15.07-.29,0-.42-.07-.13-.19-.19-.37-.19Z"/>
    <path class="cls-2" d="M158.88,176.56c-.13,0-.24.04-.33.13-.09.09-.13.2-.13.33v6.01c0,.13.04.24.13.33.09.09.2.13.33.13s.25-.04.33-.13c.09-.09.13-.2.13-.33v-6.01c0-.14-.04-.25-.13-.33-.09-.09-.2-.13-.33-.13Z"/>
    <path class="cls-2" d="M166.21,176.56h-4.75c-.12,0-.23.04-.31.12s-.12.18-.12.31.04.23.12.31.18.12.31.12h1.92v5.62c0,.13.04.24.13.33s.2.13.33.13.24-.04.33-.13c.09-.09.13-.2.13-.33v-5.62h1.91c.12,0,.23-.04.31-.12s.12-.18.12-.31-.04-.23-.12-.31-.18-.12-.31-.12Z"/>
    <path class="cls-2" d="M168.78,176.56c-.13,0-.24.04-.33.13-.09.09-.13.2-.13.33v6.01c0,.13.04.24.13.33.09.09.2.13.33.13s.25-.04.33-.13c.09-.09.13-.2.13-.33v-6.01c0-.14-.04-.25-.13-.33-.09-.09-.2-.13-.33-.13Z"/>
    <path class="cls-2" d="M169.66,174.03c-.12,0-.23.04-.32.13l-.87.87c-.07.08-.11.18-.11.3s.04.24.13.32.19.13.32.13.23-.04.31-.12l.86-.86s.08-.09.1-.14c.02-.05.03-.11.03-.17,0-.13-.04-.24-.12-.33-.08-.09-.19-.13-.33-.13Z"/>
    <path class="cls-2" d="M173,178.1c.23-.25.5-.44.81-.59.31-.14.64-.21.99-.21.38,0,.69.05.93.15s.46.25.68.44c.11.08.22.12.33.11.11,0,.21-.05.29-.12.08-.07.12-.17.12-.28,0-.05,0-.1-.01-.14,0-.04-.03-.08-.05-.12-.03-.04-.06-.08-.11-.11-.33-.27-.66-.47-.99-.59-.33-.12-.72-.18-1.18-.18-.49,0-.94.09-1.35.28-.41.18-.78.44-1.09.76-.31.32-.55.7-.73,1.13s-.26.89-.26,1.39.09.97.26,1.4c.17.43.42.81.73,1.13.31.32.68.57,1.09.76.42.18.87.27,1.35.27.4,0,.79-.07,1.15-.2.36-.13.71-.32,1.03-.58.05-.05.08-.1.11-.16.02-.06.04-.11.04-.17,0-.13-.04-.23-.11-.31-.07-.07-.16-.12-.26-.12-.1,0-.21.03-.32.1-.25.18-.51.33-.78.43-.27.1-.56.16-.86.16-.35,0-.68-.07-.99-.21s-.58-.33-.81-.58c-.23-.25-.42-.54-.55-.87-.13-.33-.2-.68-.2-1.06s.07-.72.2-1.05c.13-.33.31-.62.55-.87Z"/>
    <path class="cls-2" d="M185,177.47c-.31-.32-.69-.56-1.11-.74-.43-.17-.9-.26-1.43-.26s-1,.09-1.43.26c-.43.17-.8.42-1.11.74-.31.32-.55.69-.72,1.12-.17.43-.26.91-.26,1.43s.09,1,.26,1.43c.17.44.41.81.72,1.13.31.32.68.56,1.11.74.43.17.91.26,1.43.26s1-.09,1.43-.26c.43-.17.8-.42,1.11-.74.31-.32.56-.69.73-1.13s.26-.91.26-1.43-.09-1-.26-1.43c-.17-.43-.41-.81-.73-1.12ZM184.91,181.1c-.13.33-.31.62-.55.87-.24.25-.52.44-.84.58-.32.14-.68.21-1.06.21s-.74-.07-1.06-.21c-.32-.14-.6-.33-.84-.58-.23-.25-.42-.53-.55-.87-.13-.33-.2-.69-.2-1.07s.07-.74.2-1.07c.13-.33.31-.62.55-.87.23-.25.51-.44.84-.57.32-.14.68-.2,1.06-.2s.74.07,1.06.2c.32.14.6.33.84.57.24.25.42.53.55.87.13.33.19.69.19,1.07s-.06.74-.19,1.07Z"/>
    <path class="cls-2" d="M192.23,182.57h-3.22v-5.55c0-.13-.04-.24-.13-.33-.09-.09-.2-.13-.33-.13s-.23.04-.32.13c-.09.09-.13.2-.13.33v6.01c0,.13.04.24.13.33s.19.13.32.13h3.68c.13,0,.24-.04.33-.13.09-.09.13-.2.13-.33s-.04-.24-.13-.33c-.09-.09-.2-.13-.33-.13Z"/>
    <path class="cls-2" d="M197.15,176.87c-.08-.21-.22-.31-.44-.31-.2,0-.35.1-.44.31l-2.5,5.96c-.07.16-.06.31.03.45.09.14.22.21.38.21.08,0,.16-.02.24-.07.08-.05.14-.12.18-.21l.51-1.24h3.18l.5,1.24c.04.09.09.16.17.21.08.05.16.08.25.08.17,0,.3-.07.39-.2.09-.13.1-.28.03-.45l-2.5-5.98ZM195.44,181.2l1.29-3.16,1.27,3.16h-2.56Z"/>
    <path class="cls-2" d="M203.84,179.51c-.46-.05-.82-.13-1.06-.25-.25-.12-.41-.26-.51-.42-.09-.16-.14-.33-.14-.51,0-.35.15-.61.44-.78s.66-.25,1.1-.24c.25,0,.46.03.65.1.18.07.34.16.48.28.14.12.25.26.35.44.07.11.16.19.29.23s.25.03.36-.04c.1-.07.16-.16.17-.27.01-.12-.02-.24-.1-.37-.15-.24-.32-.45-.52-.63-.2-.18-.44-.32-.71-.42s-.58-.15-.95-.15c-.46,0-.88.07-1.26.21-.38.14-.67.35-.89.62-.22.27-.33.6-.33.99,0,.53.21.98.63,1.34.42.36,1,.58,1.73.65.56.06.97.21,1.21.46.25.25.37.53.37.84,0,.25-.07.46-.22.63s-.34.3-.58.39-.5.13-.79.13c-.25,0-.5-.04-.73-.12-.23-.08-.43-.18-.59-.3-.16-.12-.28-.26-.35-.41-.05-.11-.13-.2-.24-.25-.1-.06-.21-.07-.32-.05-.15.03-.25.1-.32.2-.06.11-.06.22,0,.35.12.28.3.52.56.74.25.21.55.38.9.5s.7.18,1.08.18c.32,0,.63-.04.93-.12s.57-.21.8-.38.42-.38.56-.63c.14-.25.21-.54.21-.88,0-.59-.2-1.06-.59-1.42-.39-.36-.94-.57-1.65-.64Z"/>
    <path class="cls-2" d="M216.05,176.56c-.09,0-.17.02-.24.06-.07.04-.12.09-.17.16l-2.11,3.33-2.08-3.3c-.05-.08-.11-.15-.17-.19-.06-.04-.14-.07-.24-.07-.11,0-.21.03-.3.1-.09.07-.14.16-.16.27-.02.11.01.23.09.35l2.37,3.69v2.07c0,.13.04.24.13.33.09.09.2.13.32.13s.24-.04.33-.13c.09-.09.13-.2.13-.33v-2.07l2.39-3.69c.07-.11.1-.22.09-.33s-.05-.2-.12-.28c-.07-.07-.16-.11-.27-.11Z"/>
    <path class="cls-2" d="M225.79,177.41c.14,0,.25-.04.33-.12.08-.08.12-.18.12-.3,0-.13-.04-.24-.12-.32-.08-.08-.19-.12-.33-.12h-4.01c-.13,0-.24.04-.33.13-.09.09-.13.2-.13.33v6.01c0,.13.04.24.13.33.09.09.2.13.33.13h4.01c.14,0,.25-.04.33-.12.08-.08.12-.19.12-.32s-.04-.22-.12-.3c-.08-.08-.19-.12-.33-.12h-3.55v-2.22h2.55c.14,0,.25-.04.33-.12.08-.08.12-.18.12-.31s-.04-.23-.12-.31c-.08-.08-.19-.12-.33-.12h-2.55v-2.16h3.55Z"/>
    <path class="cls-2" d="M233.34,176.56c-.13,0-.24.04-.33.13-.09.09-.13.2-.13.33v4.86l-3.87-5.15c-.09-.11-.21-.17-.36-.17-.13,0-.24.04-.32.13-.09.09-.13.2-.13.33v6.01c0,.13.04.24.13.33s.19.13.32.13.25-.04.33-.13c.09-.09.13-.2.13-.33v-4.85l3.87,5.15c.04.05.1.09.16.12.07.03.13.04.19.04.14,0,.25-.04.33-.13.08-.09.12-.2.12-.33v-6.01c0-.14-.04-.25-.12-.33-.08-.09-.19-.13-.33-.13Z"/>
    <path class="cls-2" d="M241.98,177.47c-.31-.32-.69-.56-1.11-.74-.43-.17-.9-.26-1.43-.26s-1,.09-1.43.26c-.43.17-.8.42-1.11.74s-.55.69-.72,1.12c-.17.43-.26.91-.26,1.43s.09,1,.26,1.43.41.81.72,1.13c.31.32.68.56,1.11.74s.91.26,1.43.26,1-.09,1.43-.26c.43-.17.8-.42,1.11-.74.31-.32.56-.69.73-1.13s.26-.91.26-1.43-.09-1-.26-1.43c-.17-.43-.41-.81-.73-1.12ZM241.88,181.1c-.13.33-.31.62-.55.87-.24.25-.52.44-.84.58-.32.14-.68.21-1.06.21s-.74-.07-1.06-.21c-.32-.14-.6-.33-.84-.58-.23-.25-.42-.53-.55-.87s-.2-.69-.2-1.07.07-.74.2-1.07c.13-.33.31-.62.55-.87.23-.25.51-.44.84-.57.32-.14.68-.2,1.06-.2s.74.07,1.06.2c.32.14.6.33.84.57.24.25.42.53.55.87.13.33.19.69.19,1.07s-.06.74-.19,1.07Z"/>
    <path class="cls-2" d="M249.21,182.57h-3.22v-5.55c0-.13-.04-.24-.13-.33-.09-.09-.2-.13-.33-.13s-.23.04-.32.13c-.09.09-.13.2-.13.33v6.01c0,.13.04.24.13.33s.19.13.32.13h3.68c.13,0,.24-.04.33-.13.09-.09.13-.2.13-.33s-.04-.24-.13-.33c-.09-.09-.2-.13-.33-.13Z"/>
    <path class="cls-2" d="M254.38,175.67l.86-.86s.08-.09.1-.14c.02-.05.03-.11.03-.17,0-.13-.04-.24-.12-.33-.08-.09-.19-.13-.33-.13-.12,0-.23.04-.32.13l-.87.87c-.07.08-.11.18-.11.3s.04.24.13.32c.09.09.19.13.32.13s.23-.04.31-.12Z"/>
    <path class="cls-2" d="M256.57,177.47c-.31-.32-.69-.56-1.11-.74-.43-.17-.9-.26-1.43-.26s-1,.09-1.43.26c-.43.17-.8.42-1.11.74s-.55.69-.72,1.12c-.17.43-.26.91-.26,1.43s.09,1,.26,1.43.41.81.72,1.13c.31.32.68.56,1.11.74s.91.26,1.43.26,1-.09,1.43-.26c.43-.17.8-.42,1.11-.74.31-.32.56-.69.73-1.13s.26-.91.26-1.43-.09-1-.26-1.43c-.17-.43-.41-.81-.73-1.12ZM256.48,181.1c-.13.33-.31.62-.55.87-.24.25-.52.44-.84.58-.32.14-.68.21-1.06.21s-.74-.07-1.06-.21c-.32-.14-.6-.33-.84-.58-.23-.25-.42-.53-.55-.87s-.2-.69-.2-1.07.07-.74.2-1.07c.13-.33.31-.62.55-.87.23-.25.51-.44.84-.57.32-.14.68-.2,1.06-.2s.74.07,1.06.2c.32.14.6.33.84.57.24.25.42.53.55.87.13.33.19.69.19,1.07s-.06.74-.19,1.07Z"/>
    <path class="cls-2" d="M260.8,178.1c.23-.25.5-.44.81-.59.31-.14.64-.21.99-.21.39,0,.69.05.93.15s.46.25.68.44c.1.08.21.12.32.12.12,0,.21-.05.29-.12.08-.08.12-.17.12-.28,0-.05,0-.1-.01-.14,0-.04-.03-.08-.05-.12-.03-.04-.06-.08-.11-.11-.33-.27-.66-.47-.99-.59-.33-.12-.72-.18-1.18-.18-.49,0-.94.09-1.35.28-.41.18-.78.44-1.09.76s-.55.7-.73,1.13c-.18.43-.26.89-.26,1.39s.09.97.26,1.4c.17.43.42.81.73,1.13.31.32.68.57,1.09.76.42.18.87.27,1.35.27.4,0,.79-.06,1.16-.19.37-.13.71-.32,1.02-.58.05-.05.09-.1.11-.16.02-.06.03-.11.03-.17v-2.12c0-.14-.04-.25-.12-.33-.08-.09-.19-.13-.33-.13h-1.66c-.13,0-.24.04-.33.12-.09.08-.13.17-.13.29s.04.22.13.29c.09.08.2.12.33.12h1.23v1.57c-.19.12-.38.22-.57.3-.27.1-.56.16-.86.16-.35,0-.68-.07-.99-.21s-.58-.33-.81-.58c-.23-.25-.42-.54-.55-.87-.13-.33-.2-.68-.2-1.06s.07-.72.2-1.05c.13-.33.31-.62.55-.87Z"/>
    <path class="cls-2" d="M267.52,176.56c-.13,0-.24.04-.33.13-.09.09-.13.2-.13.33v6.01c0,.13.04.24.13.33.09.09.2.13.33.13s.25-.04.33-.13c.09-.09.13-.2.13-.33v-6.01c0-.14-.04-.25-.13-.33-.09-.09-.2-.13-.33-.13Z"/>
    <path class="cls-2" d="M271.74,178.1c.23-.25.5-.44.81-.59.31-.14.64-.21.99-.21.39,0,.69.05.93.15s.46.25.68.44c.11.08.22.12.33.11.11,0,.21-.05.29-.12.08-.07.12-.17.12-.28,0-.05,0-.1-.01-.14,0-.04-.03-.08-.05-.12-.03-.04-.06-.08-.11-.11-.33-.27-.66-.47-.99-.59-.33-.12-.72-.18-1.18-.18-.49,0-.94.09-1.35.28-.41.18-.78.44-1.09.76s-.55.7-.73,1.13c-.18.43-.26.89-.26,1.39s.09.97.26,1.4c.17.43.42.81.73,1.13.31.32.68.57,1.09.76.42.18.87.27,1.35.27.4,0,.79-.07,1.15-.2.36-.13.71-.32,1.03-.58.05-.05.08-.1.11-.16.02-.06.04-.11.04-.17,0-.13-.04-.23-.11-.31-.07-.07-.16-.12-.26-.12-.1,0-.21.03-.32.1-.25.18-.51.33-.78.43s-.56.16-.86.16c-.35,0-.68-.07-.99-.21s-.58-.33-.81-.58c-.23-.25-.42-.54-.55-.87-.13-.33-.2-.68-.2-1.06s.07-.72.2-1.05c.13-.33.31-.62.55-.87Z"/>
    <path class="cls-2" d="M283.74,177.47c-.31-.32-.69-.56-1.11-.74-.43-.17-.9-.26-1.43-.26s-1,.09-1.43.26c-.43.17-.8.42-1.11.74s-.55.69-.72,1.12c-.17.43-.26.91-.26,1.43s.09,1,.26,1.43.41.81.72,1.13c.31.32.68.56,1.11.74s.91.26,1.43.26,1-.09,1.43-.26c.43-.17.8-.42,1.11-.74.31-.32.56-.69.73-1.13s.26-.91.26-1.43-.09-1-.26-1.43c-.17-.43-.41-.81-.73-1.12ZM283.65,181.1c-.13.33-.31.62-.55.87-.24.25-.52.44-.84.58-.32.14-.68.21-1.06.21s-.74-.07-1.06-.21c-.32-.14-.6-.33-.84-.58-.23-.25-.42-.53-.55-.87s-.2-.69-.2-1.07.07-.74.2-1.07c.13-.33.31-.62.55-.87.23-.25.51-.44.84-.57.32-.14.68-.2,1.06-.2s.74.07,1.06.2c.32.14.6.33.84.57.24.25.42.53.55.87.13.33.19.69.19,1.07s-.06.74-.19,1.07Z"/>
    <path class="cls-2" d="M290.95,180.16c-.39-.36-.94-.57-1.65-.64-.46-.05-.82-.13-1.06-.25-.25-.12-.41-.26-.51-.42-.09-.16-.14-.33-.14-.51,0-.35.15-.61.44-.78s.66-.25,1.1-.24c.25,0,.46.03.65.1.18.07.34.16.48.28.14.12.25.26.35.44.07.11.16.19.29.23s.25.03.36-.04c.1-.07.16-.16.17-.27.01-.12-.02-.24-.1-.37-.15-.24-.32-.45-.52-.63-.2-.18-.44-.32-.71-.42s-.58-.15-.95-.15c-.46,0-.88.07-1.26.21-.38.14-.67.35-.89.62-.22.27-.33.6-.33.99,0,.53.21.98.63,1.34.42.36,1,.58,1.73.65.56.06.97.21,1.21.46.25.25.37.53.37.84,0,.25-.07.46-.22.63s-.34.3-.58.39-.5.13-.79.13c-.25,0-.5-.04-.73-.12-.23-.08-.43-.18-.59-.3-.16-.12-.28-.26-.35-.41-.05-.11-.13-.2-.24-.25-.1-.06-.21-.07-.32-.05-.15.03-.25.1-.32.2-.06.11-.06.22,0,.35.12.28.3.52.56.74.25.21.55.38.9.5s.7.18,1.08.18c.32,0,.63-.04.93-.12s.57-.21.8-.38.42-.38.56-.63c.14-.25.21-.54.21-.88,0-.59-.2-1.06-.59-1.42Z"/>
    <path class="cls-2" d="M50.08,104.56c.3.68,0,1.48-.68,1.78l-4.02,1.79c2.56.87,5.44.83,8.11-.35,3.28-1.45,5.5-4.29,6.3-7.51-2.93-1.58-6.52-1.83-9.8-.38-2.68,1.19-4.66,3.3-5.73,5.8l4.04-1.8c.68-.3,1.48,0,1.78.68Z"/>
    <path class="cls-2" d="M82.4,105.9c-.77,0-1.4.63-1.4,1.4v47.4c0,.77.63,1.4,1.4,1.4s1.4-.63,1.4-1.4v-47.4c0-.77-.63-1.4-1.4-1.4Z"/>
  </g>
</svg>