<?xml version="1.0" encoding="UTF-8"?>
<svg id="Capa_1" xmlns="http://www.w3.org/2000/svg" viewBox="0 0 1080 1080">
  <defs>
    <style>
      .cls-1 {
        fill: #fff;
      }
    </style>
  </defs>
  <circle class="cls-1" cx="135.38" cy="553.35" r="22.34"/>
  <circle class="cls-1" cx="189.2" cy="553.35" r="22.34" transform="translate(-197.36 114.53) rotate(-22.5)"/>
  <path class="cls-1" d="M462.87,566.71c58.77,0,84.12-25.35,84.12-53.01,0-64.53-111.78-42.64-111.78-65.68,0-6.91,6.91-13.83,27.66-13.83,17.28,0,24.43,6.91,26.5,10.37,3.23,5.76,6.91,9.22,13.83,9.22h28.81c5.76,0,9.22-3.46,9.22-9.22,0-23.05-25.35-48.4-78.36-48.4-56.46,0-80.66,24.2-80.66,51.86,0,64.53,111.78,42.64,111.78,65.68,0,6.91-8.07,14.98-31.11,14.98s-29.96-6.91-33.42-12.68c-3.23-5.53-6.91-9.22-13.83-9.22h-28.81c-5.76,0-9.22,3.46-9.22,9.22,0,25.35,25.35,50.7,85.27,50.7Z"/>
  <path class="cls-1" d="M737.17,400.78h-39.18c-4.61,0-8.53,3.46-10.37,8.07l-40.33,104.86h-2.3l-41.48-104.86c-1.84-4.61-5.76-8.07-10.37-8.07h-36.87c-4.61,0-7.84,3.46-5.76,8.07l62.23,145.19c2.07,4.61,5.76,8.07,10.37,8.07h47.25c4.61,0,8.3-3.46,10.37-8.07l62.23-145.19c2.07-4.61-1.15-8.07-5.76-8.07Z"/>
  <path class="cls-1" d="M767.17,562.1h140.58c4.61,0,8.07-3.46,8.07-8.07v-23.05c0-4.61-3.46-8.07-8.07-8.07h-97.95v-23.05h72.6c4.61,0,8.07-3.46,8.07-8.07v-23.05c0-4.61-3.46-8.07-8.07-8.07h-72.6v-20.74h97.95c4.61,0,8.07-3.46,8.07-8.07v-23.05c0-4.61-3.46-8.07-8.07-8.07h-140.58c-4.61,0-8.07,3.46-8.07,8.07v145.19c0,4.61,3.46,8.07,8.07,8.07Z"/>
  <circle class="cls-1" cx="108.49" cy="508.5" r="22.34"/>
  <circle class="cls-1" cx="162.31" cy="508.5" r="22.34"/>
  <circle class="cls-1" cx="162.31" cy="598.2" r="22.34"/>
  <circle class="cls-1" cx="216.13" cy="508.5" r="22.34"/>
  <circle class="cls-1" cx="135.38" cy="463.65" r="22.34"/>
  <circle class="cls-1" cx="189.22" cy="463.65" r="22.34" transform="translate(-163.03 107.71) rotate(-22.5)"/>
  <path class="cls-1" d="M157.6,441.07c1.83,1.91,3.42,4.04,4.71,6.37,1.27-2.29,2.82-4.42,4.61-6.3v-75.48c1.34-1.24,2.19-3,2.19-4.97,0-3.76-3.04-6.8-6.8-6.8s-6.8,3.04-6.8,6.8c0,1.92.81,3.65,2.09,4.89v75.5Z"/>
  <path class="cls-1" d="M391.02,613.95c.15-.15.27-.32.34-.5.08-.18.11-.37.11-.56,0-.42-.11-.75-.34-.99-.23-.24-.51-.37-.84-.4-.33-.03-.67.08-1.01.33-.8.59-1.63,1.05-2.5,1.39-.87.33-1.79.5-2.76.5-1.12,0-2.18-.22-3.17-.67s-1.86-1.07-2.61-1.87c-.75-.8-1.34-1.73-1.76-2.79-.42-1.06-.63-2.19-.63-3.41s.21-2.33.63-3.39c.42-1.06,1-1.99,1.76-2.79.75-.8,1.62-1.43,2.61-1.88.99-.46,2.05-.69,3.17-.69,1.24,0,2.23.16,2.99.49s1.48.79,2.19,1.4c.34.27.7.39,1.06.36.36-.03.67-.16.93-.4.26-.24.39-.54.39-.9,0-.17-.01-.32-.04-.44-.03-.12-.09-.25-.17-.37-.09-.12-.2-.24-.36-.36-1.07-.88-2.13-1.5-3.18-1.89-1.06-.38-2.32-.57-3.79-.57-1.56,0-3.01.29-4.34.89-1.33.59-2.5,1.4-3.5,2.44-1,1.04-1.78,2.25-2.34,3.63-.56,1.38-.84,2.87-.84,4.47s.28,3.12.84,4.51c.56,1.39,1.34,2.61,2.34,3.64,1,1.04,2.17,1.85,3.51,2.43,1.34.58,2.79.87,4.33.87,1.3,0,2.53-.21,3.7-.63,1.17-.42,2.27-1.04,3.3-1.86Z"/>
  <path class="cls-1" d="M416.84,596.76c-1.01-1.02-2.2-1.81-3.59-2.37-1.38-.56-2.91-.84-4.58-.84s-3.21.28-4.6.84c-1.39.56-2.59,1.35-3.59,2.37-1,1.02-1.78,2.22-2.33,3.61-.55,1.39-.83,2.92-.83,4.6s.28,3.21.83,4.61c.55,1.4,1.33,2.61,2.33,3.63,1,1.02,2.19,1.81,3.59,2.37,1.39.56,2.92.84,4.6.84s3.2-.28,4.58-.84c1.38-.56,2.58-1.35,3.59-2.37,1.01-1.02,1.79-2.23,2.34-3.63.55-1.4.83-2.94.83-4.61s-.28-3.21-.83-4.6c-.55-1.39-1.33-2.59-2.34-3.61ZM416.54,608.44c-.41,1.07-1,2-1.76,2.79-.76.79-1.66,1.41-2.7,1.86-1.04.45-2.18.67-3.41.67s-2.38-.22-3.41-.67c-1.04-.45-1.93-1.07-2.69-1.86-.75-.79-1.34-1.72-1.76-2.79-.42-1.07-.63-2.22-.63-3.46s.21-2.39.63-3.46c.42-1.07,1-1.99,1.76-2.79.75-.79,1.65-1.4,2.69-1.84,1.04-.44,2.18-.66,3.41-.66s2.38.22,3.41.66c1.04.44,1.94,1.05,2.7,1.84.76.79,1.35,1.72,1.76,2.79.41,1.07.61,2.22.61,3.46s-.2,2.39-.61,3.46Z"/>
  <path class="cls-1" d="M447.9,604.98c0-1.68-.28-3.21-.83-4.6-.55-1.39-1.33-2.59-2.34-3.61s-2.2-1.81-3.59-2.37c-1.38-.56-2.91-.84-4.58-.84s-3.21.28-4.6.84c-1.39.56-2.59,1.35-3.59,2.37-1,1.02-1.78,2.22-2.33,3.61-.55,1.39-.83,2.92-.83,4.6s.28,3.21.83,4.61c.55,1.4,1.33,2.61,2.33,3.63,1,1.02,2.19,1.81,3.59,2.37,1.39.56,2.92.84,4.6.84s3.2-.28,4.58-.84c1.38-.56,2.58-1.35,3.59-2.37,1.01-1.02,1.79-2.23,2.34-3.63s.83-2.94.83-4.61ZM444.43,608.44c-.41,1.07-1,2-1.76,2.79-.76.79-1.66,1.41-2.7,1.86-1.04.45-2.18.67-3.41.67s-2.38-.22-3.41-.67c-1.04-.45-1.93-1.07-2.69-1.86-.75-.79-1.34-1.72-1.76-2.79-.42-1.07-.63-2.22-.63-3.46s.21-2.39.63-3.46c.42-1.07,1-1.99,1.76-2.79.75-.79,1.65-1.4,2.69-1.84,1.04-.44,2.18-.66,3.41-.66s2.38.22,3.41.66c1.04.44,1.94,1.05,2.7,1.84.76.79,1.35,1.72,1.76,2.79.41,1.07.61,2.22.61,3.46s-.2,2.39-.61,3.46Z"/>
  <path class="cls-1" d="M457.67,614.66v-6.26h4.23c1.43,0,2.7-.3,3.8-.91,1.1-.61,1.97-1.46,2.59-2.54.62-1.09.93-2.32.93-3.71s-.31-2.73-.93-3.84c-.62-1.11-1.48-1.99-2.59-2.61-1.1-.63-2.37-.94-3.8-.94h-5.71c-.42,0-.77.14-1.06.41-.29.28-.43.63-.43,1.07v19.34c0,.42.14.77.43,1.06.29.29.64.43,1.06.43s.79-.14,1.07-.43c.28-.29.41-.64.41-1.06ZM457.67,596.58h4.23c.88,0,1.65.2,2.31.6.67.4,1.19.95,1.57,1.64.38.7.57,1.5.57,2.41,0,.86-.19,1.62-.57,2.29-.38.67-.9,1.19-1.57,1.57-.67.38-1.44.57-2.31.57h-4.23v-9.09Z"/>
  <path class="cls-1" d="M489.04,596.58c.44,0,.79-.12,1.06-.37.27-.25.4-.57.4-.97,0-.42-.13-.76-.4-1.01-.27-.26-.62-.39-1.06-.39h-12.91c-.42,0-.77.14-1.06.41-.29.28-.43.63-.43,1.07v19.34c0,.42.14.77.43,1.06.29.29.64.43,1.06.43h12.91c.44,0,.79-.13,1.06-.39.27-.26.4-.6.4-1.01s-.13-.72-.4-.97c-.27-.25-.62-.37-1.06-.37h-11.43v-7.14h8.2c.44,0,.79-.13,1.06-.39.27-.26.4-.59.4-.99s-.13-.73-.4-.99c-.27-.26-.62-.39-1.06-.39h-8.2v-6.94h11.43Z"/>
  <path class="cls-1" d="M506.89,606.83c.1-.05.21-.08.31-.14,1.1-.57,1.97-1.36,2.59-2.37.62-1.01.93-2.16.93-3.46,0-1.39-.31-2.61-.93-3.66-.62-1.05-1.48-1.87-2.59-2.47-1.11-.6-2.37-.9-3.8-.9h-5.14c-.42,0-.77.14-1.06.41-.29.28-.43.63-.43,1.07v19.34c0,.42.14.77.43,1.06.29.29.64.43,1.06.43s.79-.14,1.07-.43c.28-.29.41-.64.41-1.06v-7.11h3.66c.18,0,.34-.02.52-.03l4.91,7.91c.15.25.34.43.56.54s.46.17.73.17c.61,0,1.04-.24,1.29-.73.25-.49.2-1.01-.14-1.56l-4.37-7.03ZM499.75,604.81v-8.23h3.66c.88,0,1.65.18,2.31.54.67.36,1.19.87,1.57,1.51.38.65.57,1.39.57,2.23,0,.76-.19,1.44-.57,2.04s-.9,1.07-1.57,1.4c-.67.33-1.44.5-2.31.5h-3.66Z"/>
  <path class="cls-1" d="M516.88,615.92c.26-.15.45-.38.59-.69l1.64-4h10.24l1.61,4c.11.29.3.51.56.67.26.16.53.24.81.24.55,0,.97-.21,1.24-.64s.31-.91.1-1.44l-8.06-19.23c-.25-.67-.71-1-1.4-1-.65,0-1.11.33-1.4,1l-8.03,19.17c-.23.51-.2,1,.09,1.46.29.46.69.69,1.23.69.27,0,.53-.08.79-.23ZM524.26,598.62l4.09,10.16h-8.24l4.15-10.16Z"/>
  <path class="cls-1" d="M551.15,596.58c.4,0,.73-.13.99-.39s.39-.59.39-.99-.13-.73-.39-.99-.59-.39-.99-.39h-15.28c-.4,0-.73.13-.99.39s-.39.59-.39.99.13.73.39.99.59.39.99.39h6.17v18.08c0,.42.14.77.43,1.06s.64.43,1.06.43.77-.14,1.06-.43c.29-.29.43-.64.43-1.06v-18.08h6.14Z"/>
  <path class="cls-1" d="M560.5,615.72c.28-.29.41-.64.41-1.06v-19.34c0-.44-.14-.79-.41-1.07-.28-.28-.63-.41-1.07-.41s-.77.14-1.06.41c-.29.28-.43.63-.43,1.07v19.34c0,.42.14.77.43,1.06.29.29.64.43,1.06.43s.79-.14,1.07-.43Z"/>
  <path class="cls-1" d="M576.43,616.15c.32,0,.6-.08.81-.24.22-.16.39-.4.53-.7l8.46-19.4c.23-.5.23-.95.01-1.36-.22-.41-.61-.61-1.19-.61-.34,0-.61.06-.81.19-.2.12-.38.36-.53.7l-7.33,17.25-7.19-17.25c-.25-.59-.71-.89-1.37-.89-.59,0-.99.21-1.2.63-.21.42-.18.95.09,1.6l8.37,19.14c.29.63.73.94,1.34.94Z"/>
  <path class="cls-1" d="M598.6,594.84c-.25-.67-.71-1-1.4-1-.65,0-1.11.33-1.4,1l-8.03,19.17c-.23.51-.2,1,.09,1.46.29.46.69.69,1.23.69.27,0,.53-.08.79-.23s.45-.38.59-.69l1.64-4h10.24l1.61,4c.11.29.3.51.56.67.26.16.53.24.81.24.55,0,.97-.21,1.24-.64s.31-.91.1-1.44l-8.06-19.23ZM593.1,608.78l4.15-10.16,4.09,10.16h-8.24Z"/>
  <path class="cls-1" d="M639.62,609.48c.53-1.36.8-2.86.8-4.5s-.27-3.13-.8-4.49c-.53-1.35-1.3-2.53-2.28-3.53-.99-1-2.16-1.77-3.5-2.31-1.34-.54-2.83-.81-4.47-.81h-5.17c-.42,0-.77.14-1.06.41-.29.28-.43.63-.43,1.07v19.34c0,.42.14.77.43,1.06.29.29.64.43,1.06.43h5.17c1.64,0,3.13-.27,4.47-.81,1.34-.54,2.51-1.31,3.5-2.31.99-1,1.75-2.18,2.28-3.54ZM633.61,612.42c-1.23.73-2.64,1.1-4.24,1.1h-3.69v-17.06h3.69c1.6,0,3.01.36,4.24,1.09,1.23.72,2.2,1.72,2.9,3,.7,1.28,1.06,2.75,1.06,4.43s-.35,3.13-1.06,4.41c-.7,1.29-1.67,2.3-2.9,3.03Z"/>
  <path class="cls-1" d="M661.62,596.58c.44,0,.79-.12,1.06-.37.27-.25.4-.57.4-.97,0-.42-.13-.76-.4-1.01-.27-.26-.62-.39-1.06-.39h-12.91c-.42,0-.77.14-1.06.41-.28.28-.43.63-.43,1.07v19.34c0,.42.14.77.43,1.06.29.29.64.43,1.06.43h12.91c.44,0,.79-.13,1.06-.39.27-.26.4-.6.4-1.01s-.13-.72-.4-.97c-.27-.25-.62-.37-1.06-.37h-11.43v-7.14h8.2c.44,0,.79-.13,1.06-.39.27-.26.4-.59.4-.99s-.13-.73-.4-.99c-.27-.26-.62-.39-1.06-.39h-8.2v-6.94h11.43Z"/>
  <path class="cls-1" d="M681.36,616.15c.44,0,.79-.14,1.07-.43.28-.29.41-.64.41-1.06v-6.26h4.23c1.43,0,2.69-.3,3.8-.91,1.1-.61,1.97-1.46,2.59-2.54.62-1.09.93-2.32.93-3.71s-.31-2.73-.93-3.84c-.62-1.11-1.48-1.99-2.59-2.61-1.11-.63-2.37-.94-3.8-.94h-5.71c-.42,0-.77.14-1.06.41-.28.28-.43.63-.43,1.07v19.34c0,.42.14.77.43,1.06.29.29.64.43,1.06.43ZM682.85,596.58h4.23c.88,0,1.65.2,2.31.6.67.4,1.19.95,1.57,1.64.38.7.57,1.5.57,2.41,0,.86-.19,1.62-.57,2.29-.38.67-.9,1.19-1.57,1.57-.67.38-1.44.57-2.31.57h-4.23v-9.09Z"/>
  <path class="cls-1" d="M711.87,615.43c.15.25.34.43.56.54.22.11.46.17.73.17.61,0,1.04-.24,1.29-.73s.2-1.01-.14-1.56l-4.37-7.03c.1-.05.21-.08.31-.14,1.1-.57,1.97-1.36,2.59-2.37.62-1.01.93-2.16.93-3.46,0-1.39-.31-2.61-.93-3.66s-1.48-1.87-2.59-2.47c-1.1-.6-2.37-.9-3.8-.9h-5.14c-.42,0-.77.14-1.06.41-.28.28-.43.63-.43,1.07v19.34c0,.42.14.77.43,1.06.29.29.64.43,1.06.43s.79-.14,1.07-.43c.28-.29.41-.64.41-1.06v-7.11h3.66c.18,0,.35-.02.52-.03l4.91,7.91ZM702.79,604.81v-8.23h3.66c.88,0,1.65.18,2.32.54.67.36,1.19.87,1.57,1.51.38.65.57,1.39.57,2.23,0,.76-.19,1.44-.57,2.04-.38.6-.9,1.07-1.57,1.4-.67.33-1.44.5-2.32.5h-3.66Z"/>
  <path class="cls-1" d="M738.5,596.76c-1.01-1.02-2.21-1.81-3.59-2.37-1.38-.56-2.91-.84-4.59-.84s-3.21.28-4.6.84c-1.39.56-2.59,1.35-3.59,2.37-1,1.02-1.78,2.22-2.33,3.61-.55,1.39-.83,2.92-.83,4.6s.28,3.21.83,4.61,1.33,2.61,2.33,3.63c1,1.02,2.19,1.81,3.59,2.37s2.92.84,4.6.84,3.21-.28,4.59-.84c1.38-.56,2.57-1.35,3.59-2.37,1.01-1.02,1.79-2.23,2.34-3.63s.83-2.94.83-4.61-.28-3.21-.83-4.6c-.55-1.39-1.33-2.59-2.34-3.61ZM738.2,608.44c-.41,1.07-.99,2-1.76,2.79-.76.79-1.66,1.41-2.7,1.86-1.04.45-2.18.67-3.41.67s-2.38-.22-3.41-.67c-1.04-.45-1.93-1.07-2.69-1.86-.75-.79-1.34-1.72-1.76-2.79-.42-1.07-.63-2.22-.63-3.46s.21-2.39.63-3.46c.42-1.07,1-1.99,1.76-2.79.75-.79,1.65-1.4,2.69-1.84,1.04-.44,2.18-.66,3.41-.66s2.38.22,3.41.66c1.04.44,1.94,1.05,2.7,1.84.76.79,1.35,1.72,1.76,2.79.41,1.07.61,2.22.61,3.46s-.2,2.39-.61,3.46Z"/>
  <path class="cls-1" d="M765.66,594.45c-.22-.41-.61-.61-1.19-.61-.34,0-.61.06-.81.19-.2.12-.38.36-.53.7l-7.33,17.25-7.19-17.25c-.25-.59-.7-.89-1.37-.89-.59,0-.99.21-1.2.63-.21.42-.18.95.08,1.6l8.37,19.14c.28.63.73.94,1.34.94.32,0,.59-.08.81-.24s.4-.4.53-.7l8.46-19.4c.23-.5.23-.95.01-1.36Z"/>
  <path class="cls-1" d="M771.81,594.25c-.28.28-.43.63-.43,1.07v19.34c0,.42.14.77.43,1.06.29.29.64.43,1.06.43s.79-.14,1.07-.43c.28-.29.41-.64.41-1.06v-19.34c0-.44-.14-.79-.41-1.07-.28-.28-.63-.41-1.07-.41s-.77.14-1.06.41Z"/>
  <path class="cls-1" d="M794.85,614.82c.75-.54,1.35-1.21,1.8-2.01.45-.8.67-1.74.67-2.83,0-1.88-.63-3.4-1.9-4.56-1.27-1.15-3.03-1.84-5.3-2.07-1.48-.15-2.62-.42-3.41-.8-.79-.38-1.33-.83-1.63-1.36-.3-.52-.44-1.07-.44-1.64,0-1.12.48-1.96,1.43-2.5s2.13-.8,3.54-.79c.8,0,1.49.11,2.09.33.59.22,1.1.52,1.54.9.44.38.81.85,1.11,1.4.21.36.52.61.94.74s.81.09,1.17-.14c.32-.21.51-.5.56-.87.05-.37-.06-.77-.33-1.19-.48-.78-1.04-1.46-1.69-2.03-.65-.57-1.4-1.02-2.27-1.34s-1.88-.49-3.04-.49c-1.48,0-2.83.23-4.04.69-1.21.46-2.17,1.12-2.87,2-.71.88-1.06,1.94-1.06,3.2,0,1.71.68,3.15,2.03,4.31,1.35,1.16,3.21,1.86,5.57,2.09,1.81.19,3.11.69,3.9,1.49.79.8,1.19,1.7,1.19,2.71,0,.8-.24,1.47-.71,2.01s-1.1.96-1.87,1.24-1.61.43-2.53.43c-.82,0-1.6-.12-2.34-.37-.74-.25-1.38-.57-1.9-.97-.52-.4-.9-.84-1.13-1.31-.17-.36-.42-.63-.76-.81-.33-.18-.67-.23-1.01-.16-.48.1-.82.31-1.02.66-.2.34-.2.71-.01,1.11.38.89.98,1.69,1.8,2.37.82.69,1.78,1.22,2.88,1.6,1.1.38,2.27.57,3.49.57,1.03,0,2.02-.13,2.98-.4s1.82-.67,2.57-1.21Z"/>
  <path class="cls-1" d="M804.44,594.25c-.28.28-.43.63-.43,1.07v19.34c0,.42.14.77.43,1.06.29.29.64.43,1.06.43s.79-.14,1.07-.43c.28-.29.41-.64.41-1.06v-19.34c0-.44-.14-.79-.41-1.07-.28-.28-.63-.41-1.07-.41s-.77.14-1.06.41Z"/>
  <path class="cls-1" d="M826.95,586.15l-2.8,2.8c-.23.25-.34.57-.34.97s.14.77.41,1.04c.28.28.62.41,1.04.41s.73-.13,1-.4l2.77-2.77c.15-.13.26-.29.31-.46.06-.17.09-.35.09-.54,0-.42-.13-.77-.4-1.06-.27-.29-.62-.43-1.06-.43-.4,0-.74.14-1.03.43Z"/>
  <path class="cls-1" d="M833.32,596.76c-1.01-1.02-2.21-1.81-3.59-2.37-1.38-.56-2.91-.84-4.59-.84s-3.21.28-4.6.84c-1.39.56-2.59,1.35-3.59,2.37s-1.78,2.22-2.33,3.61c-.55,1.39-.83,2.92-.83,4.6s.28,3.21.83,4.61c.55,1.4,1.33,2.61,2.33,3.63,1,1.02,2.19,1.81,3.59,2.37s2.92.84,4.6.84,3.21-.28,4.59-.84c1.38-.56,2.57-1.35,3.59-2.37,1.01-1.02,1.79-2.23,2.34-3.63s.83-2.94.83-4.61-.28-3.21-.83-4.6c-.55-1.39-1.33-2.59-2.34-3.61ZM833.02,608.44c-.41,1.07-.99,2-1.76,2.79-.76.79-1.66,1.41-2.7,1.86-1.04.45-2.18.67-3.41.67s-2.38-.22-3.41-.67c-1.04-.45-1.93-1.07-2.69-1.86-.75-.79-1.34-1.72-1.76-2.79-.42-1.07-.63-2.22-.63-3.46s.21-2.39.63-3.46c.42-1.07,1-1.99,1.76-2.79.75-.79,1.65-1.4,2.69-1.84,1.04-.44,2.18-.66,3.41-.66s2.38.22,3.41.66c1.04.44,1.94,1.05,2.7,1.84.76.79,1.35,1.72,1.76,2.79.41,1.07.61,2.22.61,3.46s-.2,2.39-.61,3.46Z"/>
  <path class="cls-1" d="M859.83,593.84c-.42,0-.77.14-1.06.41-.29.28-.43.63-.43,1.07v15.63l-12.46-16.57c-.31-.36-.69-.54-1.14-.54-.42,0-.77.14-1.04.41-.28.28-.41.63-.41,1.07v19.34c0,.42.14.77.41,1.06s.62.43,1.04.43.79-.14,1.07-.43c.28-.29.41-.64.41-1.06v-15.6l12.46,16.57c.13.17.31.3.53.39.22.09.42.13.61.13.44,0,.79-.14,1.06-.43.27-.29.4-.64.4-1.06v-19.34c0-.44-.13-.79-.4-1.07-.27-.28-.62-.41-1.06-.41Z"/>
  <path class="cls-1" d="M894.29,596.96c-.99-1-2.16-1.77-3.5-2.31-1.34-.54-2.83-.81-4.47-.81h-5.17c-.42,0-.77.14-1.06.41-.28.28-.43.63-.43,1.07v19.34c0,.42.14.77.43,1.06.29.29.64.43,1.06.43h5.17c1.64,0,3.13-.27,4.47-.81,1.34-.54,2.51-1.31,3.5-2.31.99-1,1.75-2.18,2.29-3.54.53-1.36.8-2.86.8-4.5s-.27-3.13-.8-4.49c-.53-1.35-1.3-2.53-2.29-3.53ZM893.46,609.39c-.7,1.29-1.67,2.3-2.9,3.03-1.23.73-2.64,1.1-4.24,1.1h-3.69v-17.06h3.69c1.6,0,3.01.36,4.24,1.09,1.23.72,2.19,1.72,2.9,3,.71,1.28,1.06,2.75,1.06,4.43s-.35,3.13-1.06,4.41Z"/>
  <path class="cls-1" d="M918.57,596.58c.44,0,.79-.12,1.06-.37.27-.25.4-.57.4-.97,0-.42-.13-.76-.4-1.01-.27-.26-.62-.39-1.06-.39h-12.91c-.42,0-.77.14-1.06.41-.28.28-.43.63-.43,1.07v19.34c0,.42.14.77.43,1.06.29.29.64.43,1.06.43h12.91c.44,0,.79-.13,1.06-.39.27-.26.4-.6.4-1.01s-.13-.72-.4-.97c-.27-.25-.62-.37-1.06-.37h-11.43v-7.14h8.2c.44,0,.79-.13,1.06-.39.27-.26.4-.59.4-.99s-.13-.73-.4-.99c-.27-.26-.62-.39-1.06-.39h-8.2v-6.94h11.43Z"/>
  <path class="cls-1" d="M331.99,637.63c-1.49-.15-2.62-.42-3.41-.8-.79-.38-1.33-.83-1.63-1.36-.3-.52-.44-1.07-.44-1.64,0-1.12.48-1.96,1.43-2.5.95-.54,2.13-.8,3.54-.79.8,0,1.49.11,2.09.33s1.1.52,1.54.9c.44.38.81.85,1.11,1.4.21.36.52.61.94.74.42.13.81.09,1.17-.14.32-.21.51-.5.56-.87.05-.37-.06-.77-.33-1.19-.48-.78-1.04-1.46-1.69-2.03-.65-.57-1.41-1.02-2.27-1.34-.87-.32-1.88-.49-3.04-.49-1.49,0-2.83.23-4.04.69-1.21.46-2.17,1.12-2.87,2-.7.88-1.06,1.94-1.06,3.2,0,1.71.68,3.15,2.03,4.31,1.35,1.16,3.21,1.86,5.57,2.09,1.81.19,3.11.69,3.9,1.49.79.8,1.18,1.7,1.18,2.71,0,.8-.24,1.47-.71,2.01-.48.54-1.1.96-1.87,1.24s-1.61.43-2.53.43c-.82,0-1.6-.12-2.34-.37-.74-.25-1.38-.57-1.9-.97s-.9-.84-1.13-1.31c-.17-.36-.42-.63-.76-.81-.33-.18-.67-.23-1.01-.16-.48.1-.81.31-1.01.66s-.2.71-.01,1.11c.38.89.98,1.69,1.8,2.37.82.69,1.78,1.22,2.89,1.6,1.1.38,2.27.57,3.49.57,1.03,0,2.02-.13,2.99-.4s1.82-.67,2.57-1.21c.75-.54,1.35-1.21,1.8-2.01.45-.8.67-1.74.67-2.83,0-1.88-.63-3.4-1.9-4.56-1.27-1.15-3.03-1.84-5.3-2.07Z"/>
  <path class="cls-1" d="M360.27,630.86c.44,0,.79-.12,1.06-.37.27-.25.4-.57.4-.97,0-.42-.13-.76-.4-1.01-.27-.26-.62-.39-1.06-.39h-12.91c-.42,0-.77.14-1.06.41-.29.28-.43.63-.43,1.07v19.34c0,.42.14.77.43,1.06.29.29.64.43,1.06.43h12.91c.44,0,.79-.13,1.06-.39.27-.26.4-.6.4-1.01s-.13-.72-.4-.97c-.27-.25-.62-.37-1.06-.37h-11.43v-7.14h8.2c.44,0,.79-.13,1.06-.39.27-.26.4-.59.4-.99s-.13-.73-.4-.99c-.27-.26-.62-.39-1.06-.39h-8.2v-6.94h11.43Z"/>
  <path class="cls-1" d="M378.13,641.11c.1-.05.21-.08.31-.14,1.1-.57,1.97-1.36,2.59-2.37.62-1.01.93-2.16.93-3.46,0-1.39-.31-2.61-.93-3.66-.62-1.05-1.48-1.87-2.59-2.47-1.11-.6-2.37-.9-3.8-.9h-5.14c-.42,0-.77.14-1.06.41-.29.28-.43.63-.43,1.07v19.34c0,.42.14.77.43,1.06.29.29.64.43,1.06.43s.79-.14,1.07-.43c.28-.29.41-.64.41-1.06v-7.11h3.66c.18,0,.34-.02.52-.03l4.91,7.91c.15.25.34.43.56.54s.46.17.73.17c.61,0,1.04-.24,1.29-.73.25-.49.2-1.01-.14-1.56l-4.37-7.03ZM370.99,639.09v-8.23h3.66c.88,0,1.65.18,2.31.54.67.36,1.19.87,1.57,1.51.38.65.57,1.39.57,2.23,0,.76-.19,1.44-.57,2.04s-.9,1.07-1.57,1.4c-.67.33-1.44.5-2.31.5h-3.66Z"/>
  <path class="cls-1" d="M404.5,628.12c-.34,0-.61.06-.81.19-.2.12-.38.36-.53.7l-7.33,17.25-7.19-17.25c-.25-.59-.71-.89-1.37-.89-.59,0-.99.21-1.2.63-.21.42-.18.95.09,1.6l8.37,19.14c.29.63.73.94,1.34.94.32,0,.6-.08.81-.24.22-.16.39-.4.53-.7l8.46-19.4c.23-.5.23-.95.01-1.36-.22-.41-.61-.61-1.19-.61Z"/>
  <path class="cls-1" d="M412.9,628.12c-.42,0-.77.14-1.06.41-.29.28-.43.63-.43,1.07v19.34c0,.42.14.77.43,1.06.29.29.64.43,1.06.43s.79-.14,1.07-.43c.28-.29.41-.64.41-1.06v-19.34c0-.44-.14-.79-.41-1.07-.28-.28-.63-.41-1.07-.41Z"/>
  <path class="cls-1" d="M426.45,633.09c.75-.8,1.62-1.43,2.61-1.88.99-.46,2.05-.69,3.17-.69,1.24,0,2.23.16,2.99.49s1.48.79,2.19,1.4c.34.27.7.39,1.06.36.36-.03.67-.16.93-.4.26-.24.39-.54.39-.9,0-.17-.01-.32-.04-.44-.03-.12-.09-.25-.17-.37-.09-.12-.2-.24-.36-.36-1.07-.88-2.13-1.5-3.18-1.89-1.06-.38-2.32-.57-3.79-.57-1.56,0-3.01.29-4.34.89-1.33.59-2.5,1.4-3.5,2.44-1,1.04-1.78,2.25-2.34,3.63-.56,1.38-.84,2.87-.84,4.47s.28,3.12.84,4.51c.56,1.39,1.34,2.61,2.34,3.64,1,1.04,2.17,1.85,3.51,2.43,1.34.58,2.79.87,4.33.87,1.3,0,2.53-.21,3.7-.63,1.17-.42,2.27-1.04,3.3-1.86.15-.15.27-.32.34-.5.08-.18.11-.37.11-.56,0-.42-.11-.75-.34-.99-.23-.24-.51-.37-.84-.4-.33-.03-.67.08-1.01.33-.8.59-1.63,1.05-2.5,1.39-.87.33-1.79.5-2.76.5-1.12,0-2.18-.22-3.17-.67s-1.86-1.07-2.61-1.87c-.75-.8-1.34-1.73-1.76-2.79-.42-1.06-.63-2.19-.63-3.41s.21-2.33.63-3.39c.42-1.06,1-1.99,1.76-2.79Z"/>
  <path class="cls-1" d="M448.07,628.12c-.42,0-.77.14-1.06.41-.29.28-.43.63-.43,1.07v19.34c0,.42.14.77.43,1.06.29.29.64.43,1.06.43s.79-.14,1.07-.43c.28-.29.41-.64.41-1.06v-19.34c0-.44-.14-.79-.41-1.07-.28-.28-.63-.41-1.07-.41Z"/>
  <path class="cls-1" d="M475.89,631.05c-1.01-1.02-2.2-1.81-3.59-2.37-1.38-.56-2.91-.84-4.58-.84s-3.21.28-4.6.84c-1.39.56-2.59,1.35-3.59,2.37-1,1.02-1.78,2.22-2.33,3.61-.55,1.39-.83,2.92-.83,4.6s.28,3.21.83,4.61c.55,1.4,1.33,2.61,2.33,3.63,1,1.02,2.19,1.81,3.59,2.37,1.39.56,2.92.84,4.6.84s3.2-.28,4.58-.84c1.38-.56,2.58-1.35,3.59-2.37,1.01-1.02,1.79-2.23,2.34-3.63s.83-2.94.83-4.61-.28-3.21-.83-4.6c-.55-1.39-1.33-2.59-2.34-3.61ZM475.59,642.72c-.41,1.07-1,2-1.76,2.79-.76.79-1.66,1.41-2.7,1.86-1.04.45-2.18.67-3.41.67s-2.38-.22-3.41-.67c-1.04-.45-1.93-1.07-2.69-1.86-.75-.79-1.34-1.72-1.76-2.79-.42-1.07-.63-2.22-.63-3.46s.21-2.39.63-3.46c.42-1.07,1-1.99,1.76-2.79.75-.79,1.65-1.4,2.69-1.84,1.04-.44,2.18-.66,3.41-.66s2.38.22,3.41.66c1.04.44,1.94,1.05,2.7,1.84.76.79,1.35,1.72,1.76,2.79.41,1.07.61,2.22.61,3.46s-.2,2.39-.61,3.46Z"/>
  <path class="cls-1" d="M493.78,637.63c-1.49-.15-2.62-.42-3.41-.8-.79-.38-1.33-.83-1.63-1.36-.3-.52-.44-1.07-.44-1.64,0-1.12.48-1.96,1.43-2.5.95-.54,2.13-.8,3.54-.79.8,0,1.49.11,2.09.33s1.1.52,1.54.9c.44.38.81.85,1.11,1.4.21.36.52.61.94.74.42.13.81.09,1.17-.14.32-.21.51-.5.56-.87.05-.37-.06-.77-.33-1.19-.48-.78-1.04-1.46-1.69-2.03-.65-.57-1.41-1.02-2.27-1.34-.87-.32-1.88-.49-3.04-.49-1.49,0-2.83.23-4.04.69-1.21.46-2.17,1.12-2.87,2-.7.88-1.06,1.94-1.06,3.2,0,1.71.68,3.15,2.03,4.31,1.35,1.16,3.21,1.86,5.57,2.09,1.81.19,3.11.69,3.9,1.49.79.8,1.18,1.7,1.18,2.71,0,.8-.24,1.47-.71,2.01-.48.54-1.1.96-1.87,1.24s-1.61.43-2.53.43c-.82,0-1.6-.12-2.34-.37-.74-.25-1.38-.57-1.9-.97s-.9-.84-1.13-1.31c-.17-.36-.42-.63-.76-.81-.33-.18-.67-.23-1.01-.16-.48.1-.81.31-1.01.66s-.2.71-.01,1.11c.38.89.98,1.69,1.8,2.37.82.69,1.78,1.22,2.89,1.6,1.1.38,2.27.57,3.49.57,1.03,0,2.02-.13,2.99-.4s1.82-.67,2.57-1.21c.75-.54,1.35-1.21,1.8-2.01.45-.8.67-1.74.67-2.83,0-1.88-.63-3.4-1.9-4.56-1.27-1.15-3.03-1.84-5.3-2.07Z"/>
  <path class="cls-1" d="M534.46,628.12c-.34,0-.61.06-.81.19-.2.12-.38.36-.53.7l-7.33,17.25-7.19-17.25c-.25-.59-.71-.89-1.37-.89-.59,0-.99.21-1.2.63-.21.42-.18.95.09,1.6l8.37,19.14c.29.63.73.94,1.34.94.32,0,.6-.08.81-.24.22-.16.39-.4.53-.7l8.46-19.4c.23-.5.23-.95.01-1.36-.22-.41-.61-.61-1.19-.61Z"/>
  <path class="cls-1" d="M542.86,628.12c-.42,0-.77.14-1.06.41-.29.28-.43.63-.43,1.07v19.34c0,.42.14.77.43,1.06.29.29.64.43,1.06.43s.79-.14,1.07-.43c.28-.29.41-.64.41-1.06v-19.34c0-.44-.14-.79-.41-1.07-.28-.28-.63-.41-1.07-.41Z"/>
  <path class="cls-1" d="M566.43,628.12h-15.28c-.4,0-.73.13-.99.39s-.39.59-.39.99.13.73.39.99.59.39.99.39h6.17v18.08c0,.42.14.77.43,1.06s.64.43,1.06.43.77-.14,1.06-.43c.29-.29.43-.64.43-1.06v-18.08h6.14c.4,0,.73-.13.99-.39s.39-.59.39-.99-.13-.73-.39-.99-.59-.39-.99-.39Z"/>
  <path class="cls-1" d="M574.71,628.12c-.42,0-.77.14-1.06.41-.29.28-.43.63-.43,1.07v19.34c0,.42.14.77.43,1.06.29.29.64.43,1.06.43s.79-.14,1.07-.43c.28-.29.41-.64.41-1.06v-19.34c0-.44-.14-.79-.41-1.07-.28-.28-.63-.41-1.07-.41Z"/>
  <path class="cls-1" d="M577.54,620.01c-.4,0-.74.14-1.03.43l-2.8,2.8c-.23.25-.34.57-.34.97s.14.77.41,1.04.62.41,1.04.41.73-.13,1-.4l2.77-2.77c.15-.13.26-.29.31-.46.06-.17.09-.35.09-.54,0-.42-.13-.77-.4-1.06-.27-.29-.62-.43-1.06-.43Z"/>
  <path class="cls-1" d="M588.27,633.09c.75-.8,1.62-1.43,2.61-1.88.99-.46,2.05-.69,3.17-.69,1.24,0,2.23.16,2.99.49s1.48.79,2.19,1.4c.34.27.7.39,1.06.36.36-.03.67-.16.93-.4.26-.24.39-.54.39-.9,0-.17-.01-.32-.04-.44-.03-.12-.09-.25-.17-.37-.09-.12-.2-.24-.36-.36-1.07-.88-2.13-1.5-3.18-1.89-1.06-.38-2.32-.57-3.79-.57-1.56,0-3.01.29-4.34.89-1.33.59-2.5,1.4-3.5,2.44-1,1.04-1.78,2.25-2.34,3.63s-.84,2.87-.84,4.47.28,3.12.84,4.51c.56,1.39,1.34,2.61,2.34,3.64,1,1.04,2.17,1.85,3.51,2.43,1.34.58,2.79.87,4.33.87,1.3,0,2.53-.21,3.7-.63,1.17-.42,2.27-1.04,3.3-1.86.15-.15.27-.32.34-.5.08-.18.11-.37.11-.56,0-.42-.11-.75-.34-.99-.23-.24-.51-.37-.84-.4-.33-.03-.67.08-1.01.33-.8.59-1.63,1.05-2.5,1.39-.87.33-1.79.5-2.76.5-1.12,0-2.18-.22-3.17-.67-.99-.45-1.86-1.07-2.61-1.87-.75-.8-1.34-1.73-1.76-2.79-.42-1.06-.63-2.19-.63-3.41s.21-2.33.63-3.39c.42-1.06,1-1.99,1.76-2.79Z"/>
  <path class="cls-1" d="M626.88,631.05c-1.01-1.02-2.2-1.81-3.59-2.37-1.38-.56-2.91-.84-4.58-.84s-3.21.28-4.6.84c-1.39.56-2.59,1.35-3.59,2.37-1,1.02-1.78,2.22-2.33,3.61-.55,1.39-.83,2.92-.83,4.6s.28,3.21.83,4.61c.55,1.4,1.33,2.61,2.33,3.63,1,1.02,2.19,1.81,3.59,2.37,1.39.56,2.92.84,4.6.84s3.2-.28,4.58-.84c1.38-.56,2.58-1.35,3.59-2.37,1.01-1.02,1.79-2.23,2.34-3.63s.83-2.94.83-4.61-.28-3.21-.83-4.6c-.55-1.39-1.33-2.59-2.34-3.61ZM626.58,642.72c-.41,1.07-1,2-1.76,2.79-.76.79-1.66,1.41-2.7,1.86-1.04.45-2.18.67-3.41.67s-2.38-.22-3.41-.67c-1.04-.45-1.93-1.07-2.69-1.86-.75-.79-1.34-1.72-1.76-2.79-.42-1.07-.63-2.22-.63-3.46s.21-2.39.63-3.46c.42-1.07,1-1.99,1.76-2.79.75-.79,1.65-1.4,2.69-1.84,1.04-.44,2.18-.66,3.41-.66s2.38.22,3.41.66c1.04.44,1.94,1.05,2.7,1.84.76.79,1.35,1.72,1.76,2.79.41,1.07.61,2.22.61,3.46s-.2,2.39-.61,3.46Z"/>
  <path class="cls-1" d="M650.14,647.46h-10.34v-17.86c0-.42-.14-.77-.43-1.06-.28-.29-.64-.43-1.06-.43s-.74.14-1.03.43c-.28.29-.43.64-.43,1.06v19.34c0,.42.14.77.41,1.06s.62.43,1.04.43h11.83c.42,0,.77-.14,1.06-.43.29-.29.43-.64.43-1.06s-.14-.77-.43-1.06c-.28-.29-.64-.43-1.06-.43Z"/>
  <path class="cls-1" d="M665.96,629.12c-.25-.67-.71-1-1.4-1-.65,0-1.11.33-1.4,1l-8.03,19.17c-.23.51-.2,1,.09,1.46.28.46.69.69,1.23.69.27,0,.53-.08.79-.23.26-.15.45-.38.59-.69l1.64-4h10.24l1.61,4c.11.29.3.51.56.67.26.16.53.24.82.24.55,0,.97-.21,1.24-.64.28-.43.31-.91.1-1.44l-8.06-19.23ZM660.46,643.06l4.15-10.16,4.09,10.16h-8.24Z"/>
  <path class="cls-1" d="M687.47,637.63c-1.48-.15-2.62-.42-3.41-.8-.79-.38-1.33-.83-1.63-1.36-.3-.52-.44-1.07-.44-1.64,0-1.12.48-1.96,1.43-2.5s2.13-.8,3.54-.79c.8,0,1.49.11,2.09.33.59.22,1.1.52,1.54.9.44.38.81.85,1.11,1.4.21.36.52.61.94.74s.81.09,1.17-.14c.32-.21.51-.5.56-.87.05-.37-.06-.77-.33-1.19-.48-.78-1.04-1.46-1.69-2.03-.65-.57-1.4-1.02-2.27-1.34s-1.88-.49-3.04-.49c-1.48,0-2.83.23-4.04.69-1.21.46-2.17,1.12-2.87,2-.71.88-1.06,1.94-1.06,3.2,0,1.71.68,3.15,2.03,4.31,1.35,1.16,3.21,1.86,5.57,2.09,1.81.19,3.11.69,3.9,1.49.79.8,1.19,1.7,1.19,2.71,0,.8-.24,1.47-.71,2.01s-1.1.96-1.87,1.24-1.61.43-2.53.43c-.82,0-1.6-.12-2.34-.37-.74-.25-1.38-.57-1.9-.97-.52-.4-.9-.84-1.13-1.31-.17-.36-.42-.63-.76-.81-.33-.18-.67-.23-1.01-.16-.48.1-.82.31-1.02.66-.2.34-.2.71-.01,1.11.38.89.98,1.69,1.8,2.37.82.69,1.78,1.22,2.88,1.6s2.27.57,3.49.57c1.03,0,2.02-.13,2.98-.4s1.82-.67,2.57-1.21,1.35-1.21,1.8-2.01c.45-.8.67-1.74.67-2.83,0-1.88-.63-3.4-1.9-4.56-1.27-1.15-3.03-1.84-5.3-2.07Z"/>
  <path class="cls-1" d="M726.76,628.12c-.3,0-.56.06-.77.19-.21.12-.39.3-.54.53l-6.8,10.72-6.69-10.61c-.17-.27-.35-.47-.54-.61-.19-.14-.45-.21-.77-.21-.36,0-.68.11-.96.33-.28.22-.44.5-.5.86-.06.35.04.73.28,1.13l7.63,11.86v6.66c0,.42.14.77.43,1.06.29.29.63.43,1.03.43s.77-.14,1.06-.43c.28-.29.43-.64.43-1.06v-6.66l7.68-11.86c.23-.36.32-.72.29-1.07s-.17-.65-.4-.89c-.23-.24-.51-.36-.86-.36Z"/>
  <path class="cls-1" d="M758.07,630.86c.44,0,.79-.12,1.06-.37.27-.25.4-.57.4-.97,0-.42-.13-.76-.4-1.01-.27-.26-.62-.39-1.06-.39h-12.91c-.42,0-.77.14-1.06.41-.28.28-.43.63-.43,1.07v19.34c0,.42.14.77.43,1.06.29.29.64.43,1.06.43h12.91c.44,0,.79-.13,1.06-.39.27-.26.4-.6.4-1.01s-.13-.72-.4-.97c-.27-.25-.62-.37-1.06-.37h-11.43v-7.14h8.2c.44,0,.79-.13,1.06-.39.27-.26.4-.59.4-.99s-.13-.73-.4-.99c-.27-.26-.62-.39-1.06-.39h-8.2v-6.94h11.43Z"/>
  <path class="cls-1" d="M782.35,628.12c-.42,0-.77.14-1.06.41-.29.28-.43.63-.43,1.07v15.63l-12.46-16.57c-.31-.36-.69-.54-1.14-.54-.42,0-.77.14-1.04.41-.28.28-.41.63-.41,1.07v19.34c0,.42.14.77.41,1.06s.62.43,1.04.43.79-.14,1.07-.43c.28-.29.41-.64.41-1.06v-15.6l12.46,16.57c.13.17.31.3.53.39.22.09.42.13.61.13.44,0,.79-.14,1.06-.43.27-.29.4-.64.4-1.06v-19.34c0-.44-.13-.79-.4-1.07-.27-.28-.62-.41-1.06-.41Z"/>
  <path class="cls-1" d="M810.15,631.05c-1.01-1.02-2.21-1.81-3.59-2.37-1.38-.56-2.91-.84-4.59-.84s-3.21.28-4.6.84c-1.39.56-2.59,1.35-3.59,2.37s-1.78,2.22-2.33,3.61c-.55,1.39-.83,2.92-.83,4.6s.28,3.21.83,4.61c.55,1.4,1.33,2.61,2.33,3.63,1,1.02,2.19,1.81,3.59,2.37s2.92.84,4.6.84,3.21-.28,4.59-.84c1.38-.56,2.57-1.35,3.59-2.37,1.01-1.02,1.79-2.23,2.34-3.63s.83-2.94.83-4.61-.28-3.21-.83-4.6c-.55-1.39-1.33-2.59-2.34-3.61ZM809.85,642.72c-.41,1.07-.99,2-1.76,2.79-.76.79-1.66,1.41-2.7,1.86-1.04.45-2.18.67-3.41.67s-2.38-.22-3.41-.67c-1.04-.45-1.93-1.07-2.69-1.86-.75-.79-1.34-1.72-1.76-2.79-.42-1.07-.63-2.22-.63-3.46s.21-2.39.63-3.46c.42-1.07,1-1.99,1.76-2.79.75-.79,1.65-1.4,2.69-1.84,1.04-.44,2.18-.66,3.41-.66s2.38.22,3.41.66c1.04.44,1.94,1.05,2.7,1.84.76.79,1.35,1.72,1.76,2.79.41,1.07.61,2.22.61,3.46s-.2,2.39-.61,3.46Z"/>
  <path class="cls-1" d="M833.41,647.46h-10.34v-17.86c0-.42-.14-.77-.43-1.06-.28-.29-.64-.43-1.06-.43s-.74.14-1.03.43c-.28.29-.43.64-.43,1.06v19.34c0,.42.14.77.41,1.06s.62.43,1.04.43h11.83c.42,0,.77-.14,1.06-.43.29-.29.43-.64.43-1.06s-.14-.77-.43-1.06c-.28-.29-.64-.43-1.06-.43Z"/>
  <path class="cls-1" d="M850.03,625.26l2.77-2.77c.15-.13.26-.29.31-.46.06-.17.09-.35.09-.54,0-.42-.13-.77-.4-1.06-.27-.29-.62-.43-1.06-.43-.4,0-.74.14-1.03.43l-2.8,2.8c-.23.25-.34.57-.34.97s.14.77.41,1.04c.28.28.62.41,1.04.41s.73-.13,1-.4Z"/>
  <path class="cls-1" d="M857.09,631.05c-1.01-1.02-2.21-1.81-3.59-2.37-1.38-.56-2.91-.84-4.59-.84s-3.21.28-4.6.84c-1.39.56-2.59,1.35-3.59,2.37-1,1.02-1.78,2.22-2.33,3.61-.55,1.39-.83,2.92-.83,4.6s.28,3.21.83,4.61,1.33,2.61,2.33,3.63c1,1.02,2.19,1.81,3.59,2.37s2.92.84,4.6.84,3.21-.28,4.59-.84c1.38-.56,2.57-1.35,3.59-2.37,1.01-1.02,1.79-2.23,2.34-3.63.55-1.4.83-2.94.83-4.61s-.28-3.21-.83-4.6c-.55-1.39-1.33-2.59-2.34-3.61ZM856.79,642.72c-.41,1.07-.99,2-1.76,2.79-.76.79-1.66,1.41-2.7,1.86-1.04.45-2.18.67-3.41.67s-2.38-.22-3.41-.67c-1.04-.45-1.93-1.07-2.69-1.86-.75-.79-1.34-1.72-1.76-2.79-.42-1.07-.63-2.22-.63-3.46s.21-2.39.63-3.46c.42-1.07,1-1.99,1.76-2.79.75-.79,1.65-1.4,2.69-1.84,1.04-.44,2.18-.66,3.41-.66s2.38.22,3.41.66c1.04.44,1.94,1.05,2.7,1.84.76.79,1.35,1.72,1.76,2.79.41,1.07.61,2.22.61,3.46s-.2,2.39-.61,3.46Z"/>
  <path class="cls-1" d="M870.7,633.09c.75-.8,1.62-1.43,2.61-1.88.99-.46,2.05-.69,3.17-.69,1.24,0,2.23.16,2.99.49s1.48.79,2.19,1.4c.32.27.67.39,1.04.37.37-.02.69-.15.94-.4.26-.25.39-.55.39-.91,0-.17-.01-.32-.04-.44-.03-.12-.09-.25-.17-.37-.09-.12-.2-.24-.36-.36-1.07-.88-2.13-1.5-3.19-1.89-1.06-.38-2.32-.57-3.79-.57-1.56,0-3.01.29-4.34.89-1.33.59-2.5,1.4-3.5,2.44s-1.78,2.25-2.34,3.63c-.56,1.38-.84,2.87-.84,4.47s.28,3.12.84,4.51c.56,1.39,1.34,2.61,2.34,3.64,1,1.04,2.17,1.85,3.51,2.43,1.34.58,2.78.87,4.33.87,1.3,0,2.53-.2,3.72-.61,1.18-.41,2.27-1.03,3.29-1.87.17-.15.29-.32.36-.5.07-.18.1-.37.1-.56v-6.83c0-.44-.13-.79-.4-1.07-.27-.28-.62-.41-1.06-.41h-5.34c-.42,0-.77.12-1.06.37-.29.25-.43.56-.43.94s.14.7.43.94c.28.25.64.37,1.06.37h3.94v5.05c-.6.38-1.21.72-1.84.96-.87.33-1.79.5-2.76.5-1.12,0-2.18-.22-3.17-.67s-1.86-1.07-2.61-1.87c-.75-.8-1.34-1.73-1.76-2.79-.42-1.06-.63-2.19-.63-3.41s.21-2.33.63-3.39c.42-1.06,1-1.99,1.76-2.79Z"/>
  <path class="cls-1" d="M892.32,628.12c-.42,0-.77.14-1.06.41-.28.28-.43.63-.43,1.07v19.34c0,.42.14.77.43,1.06.29.29.64.43,1.06.43s.79-.14,1.07-.43c.28-.29.41-.64.41-1.06v-19.34c0-.44-.14-.79-.41-1.07-.28-.28-.63-.41-1.07-.41Z"/>
  <path class="cls-1" d="M905.87,633.09c.75-.8,1.62-1.43,2.61-1.88.99-.46,2.05-.69,3.17-.69,1.24,0,2.23.16,2.99.49s1.48.79,2.19,1.4c.34.27.69.39,1.06.36.36-.03.67-.16.93-.4.26-.24.39-.54.39-.9,0-.17-.01-.32-.04-.44-.03-.12-.09-.25-.17-.37-.09-.12-.2-.24-.36-.36-1.07-.88-2.13-1.5-3.19-1.89-1.06-.38-2.32-.57-3.79-.57-1.56,0-3.01.29-4.34.89-1.33.59-2.5,1.4-3.5,2.44s-1.78,2.25-2.34,3.63c-.56,1.38-.84,2.87-.84,4.47s.28,3.12.84,4.51c.56,1.39,1.34,2.61,2.34,3.64,1,1.04,2.17,1.85,3.51,2.43,1.34.58,2.78.87,4.33.87,1.3,0,2.53-.21,3.7-.63,1.17-.42,2.27-1.04,3.3-1.86.15-.15.27-.32.34-.5.08-.18.11-.37.11-.56,0-.42-.11-.75-.34-.99-.23-.24-.51-.37-.84-.4-.33-.03-.67.08-1.01.33-.8.59-1.63,1.05-2.5,1.39s-1.79.5-2.76.5c-1.12,0-2.18-.22-3.17-.67s-1.86-1.07-2.61-1.87c-.75-.8-1.34-1.73-1.76-2.79-.42-1.06-.63-2.19-.63-3.41s.21-2.33.63-3.39c.42-1.06,1-1.99,1.76-2.79Z"/>
  <path class="cls-1" d="M944.48,631.05c-1.01-1.02-2.21-1.81-3.59-2.37-1.38-.56-2.91-.84-4.59-.84s-3.21.28-4.6.84c-1.39.56-2.59,1.35-3.59,2.37-1,1.02-1.78,2.22-2.33,3.61-.55,1.39-.83,2.92-.83,4.6s.28,3.21.83,4.61,1.33,2.61,2.33,3.63c1,1.02,2.19,1.81,3.59,2.37s2.92.84,4.6.84,3.21-.28,4.59-.84c1.38-.56,2.57-1.35,3.59-2.37,1.01-1.02,1.79-2.23,2.34-3.63.55-1.4.83-2.94.83-4.61s-.28-3.21-.83-4.6c-.55-1.39-1.33-2.59-2.34-3.61ZM944.18,642.72c-.41,1.07-.99,2-1.76,2.79-.76.79-1.66,1.41-2.7,1.86-1.04.45-2.18.67-3.41.67s-2.38-.22-3.41-.67c-1.04-.45-1.93-1.07-2.69-1.86-.75-.79-1.34-1.72-1.76-2.79-.42-1.07-.63-2.22-.63-3.46s.21-2.39.63-3.46c.42-1.07,1-1.99,1.76-2.79.75-.79,1.65-1.4,2.69-1.84,1.04-.44,2.18-.66,3.41-.66s2.38.22,3.41.66c1.04.44,1.94,1.05,2.7,1.84.76.79,1.35,1.72,1.76,2.79.41,1.07.61,2.22.61,3.46s-.2,2.39-.61,3.46Z"/>
  <path class="cls-1" d="M967.67,639.7c-1.27-1.15-3.03-1.84-5.3-2.07-1.48-.15-2.62-.42-3.41-.8-.79-.38-1.33-.83-1.63-1.36-.3-.52-.44-1.07-.44-1.64,0-1.12.48-1.96,1.43-2.5.95-.54,2.13-.8,3.54-.79.8,0,1.49.11,2.09.33.59.22,1.1.52,1.54.9.44.38.81.85,1.11,1.4.21.36.52.61.94.74s.81.09,1.17-.14c.32-.21.51-.5.56-.87.05-.37-.06-.77-.33-1.19-.48-.78-1.04-1.46-1.69-2.03-.65-.57-1.4-1.02-2.27-1.34s-1.88-.49-3.04-.49c-1.48,0-2.83.23-4.04.69-1.21.46-2.17,1.12-2.87,2-.71.88-1.06,1.94-1.06,3.2,0,1.71.68,3.15,2.03,4.31,1.35,1.16,3.21,1.86,5.57,2.09,1.81.19,3.11.69,3.9,1.49.79.8,1.19,1.7,1.19,2.71,0,.8-.24,1.47-.71,2.01-.48.54-1.1.96-1.87,1.24s-1.61.43-2.53.43c-.82,0-1.6-.12-2.34-.37-.74-.25-1.38-.57-1.9-.97-.52-.4-.9-.84-1.13-1.31-.17-.36-.42-.63-.76-.81-.33-.18-.67-.23-1.01-.16-.48.1-.82.31-1.02.66-.2.34-.2.71-.01,1.11.38.89.98,1.69,1.8,2.37.82.69,1.78,1.22,2.88,1.6s2.27.57,3.49.57c1.03,0,2.02-.13,2.98-.4s1.82-.67,2.57-1.21,1.35-1.21,1.8-2.01c.45-.8.67-1.74.67-2.83,0-1.88-.63-3.4-1.9-4.56Z"/>
  <path class="cls-1" d="M192.87,396.53c.97,2.19-.01,4.75-2.2,5.72l-12.94,5.75c8.23,2.81,17.5,2.66,26.08-1.14,10.54-4.66,17.7-13.79,20.28-24.17-9.42-5.07-20.99-5.9-31.52-1.24-8.62,3.82-14.98,10.62-18.42,18.65l13.01-5.78c2.19-.97,4.75.01,5.72,2.2Z"/>
  <path class="cls-1" d="M296.86,400.86c-2.48,0-4.49,2.01-4.49,4.49v152.48c0,2.48,2.01,4.49,4.49,4.49s4.49-2.01,4.49-4.49v-152.48c0-2.48-2.01-4.49-4.49-4.49Z"/>
</svg>